<svg width="78" height="83" viewBox="0 0 78 83" fill="none" xmlns="http://www.w3.org/2000/svg">
<path d="M18 10V53H61V10H18ZM21.9091 13.9091H57.0909V49.0909H21.9091V13.9091ZM29.7273 19.7727V30.5418V43.2082C41.3177 43.2082 43.6369 43.3646 45.8065 42.7196C47.0769 42.3286 50.5554 41.078 50.5554 36.6803C50.5554 34.7258 49.9695 31.42 46.1386 30.5991V30.5418H45.4171C47.3716 29.6623 48.6009 28.0032 48.6009 25.56C48.6009 24.9346 48.7765 19.7727 41.9355 19.7727H29.7273ZM33.6364 23.6818H41.4545C44.404 23.6818 44.6918 25.3495 44.6918 26.5945C44.6918 29.6319 41.5132 29.5455 41.4545 29.5455H33.6364V23.6818ZM33.6364 33.4545H42.9395C46.577 33.4545 46.6463 35.754 46.6463 36.3482C46.6463 39.3973 43.4963 39.3182 43.1151 39.3182H33.6364V33.4545Z" fill="#FC9F32"/>
<path d="M6.51 71.988C7.06067 72.0907 7.51333 72.366 7.868 72.814C8.22267 73.262 8.4 73.7753 8.4 74.354C8.4 74.8767 8.26933 75.3387 8.008 75.74C7.756 76.132 7.38733 76.44 6.902 76.664C6.41667 76.888 5.84267 77 5.18 77H0.966V67.228H4.998C5.66067 67.228 6.23 67.3353 6.706 67.55C7.19133 67.7647 7.55533 68.0633 7.798 68.446C8.05 68.8287 8.176 69.2627 8.176 69.748C8.176 70.3173 8.022 70.7933 7.714 71.176C7.41533 71.5587 7.014 71.8293 6.51 71.988ZM2.926 71.26H4.718C5.18467 71.26 5.544 71.1573 5.796 70.952C6.048 70.7373 6.174 70.434 6.174 70.042C6.174 69.65 6.048 69.3467 5.796 69.132C5.544 68.9173 5.18467 68.81 4.718 68.81H2.926V71.26ZM4.9 75.404C5.376 75.404 5.74467 75.292 6.006 75.068C6.27667 74.844 6.412 74.5267 6.412 74.116C6.412 73.696 6.272 73.3693 5.992 73.136C5.712 72.8933 5.334 72.772 4.858 72.772H2.926V75.404H4.9ZM13.4061 77.126C12.6594 77.126 11.9874 76.9627 11.3901 76.636C10.7928 76.3 10.3214 75.8287 9.97609 75.222C9.64009 74.6153 9.47209 73.9153 9.47209 73.122C9.47209 72.3287 9.64476 71.6287 9.99009 71.022C10.3448 70.4153 10.8254 69.9487 11.4321 69.622C12.0388 69.286 12.7154 69.118 13.4621 69.118C14.2088 69.118 14.8854 69.286 15.4921 69.622C16.0988 69.9487 16.5748 70.4153 16.9201 71.022C17.2748 71.6287 17.4521 72.3287 17.4521 73.122C17.4521 73.9153 17.2701 74.6153 16.9061 75.222C16.5514 75.8287 16.0661 76.3 15.4501 76.636C14.8434 76.9627 14.1621 77.126 13.4061 77.126ZM13.4061 75.418C13.7608 75.418 14.0921 75.334 14.4001 75.166C14.7174 74.9887 14.9694 74.7273 15.1561 74.382C15.3428 74.0367 15.4361 73.6167 15.4361 73.122C15.4361 72.3847 15.2401 71.82 14.8481 71.428C14.4654 71.0267 13.9941 70.826 13.4341 70.826C12.8741 70.826 12.4028 71.0267 12.0201 71.428C11.6468 71.82 11.4601 72.3847 11.4601 73.122C11.4601 73.8593 11.6421 74.4287 12.0061 74.83C12.3794 75.222 12.8461 75.418 13.4061 75.418ZM22.3338 77.126C21.5872 77.126 20.9152 76.9627 20.3178 76.636C19.7205 76.3 19.2492 75.8287 18.9038 75.222C18.5678 74.6153 18.3998 73.9153 18.3998 73.122C18.3998 72.3287 18.5725 71.6287 18.9178 71.022C19.2725 70.4153 19.7532 69.9487 20.3598 69.622C20.9665 69.286 21.6432 69.118 22.3898 69.118C23.1365 69.118 23.8132 69.286 24.4198 69.622C25.0265 69.9487 25.5025 70.4153 25.8478 71.022C26.2025 71.6287 26.3798 72.3287 26.3798 73.122C26.3798 73.9153 26.1978 74.6153 25.8338 75.222C25.4792 75.8287 24.9938 76.3 24.3778 76.636C23.7712 76.9627 23.0898 77.126 22.3338 77.126ZM22.3338 75.418C22.6885 75.418 23.0198 75.334 23.3278 75.166C23.6452 74.9887 23.8972 74.7273 24.0838 74.382C24.2705 74.0367 24.3638 73.6167 24.3638 73.122C24.3638 72.3847 24.1678 71.82 23.7758 71.428C23.3932 71.0267 22.9218 70.826 22.3618 70.826C21.8018 70.826 21.3305 71.0267 20.9478 71.428C20.5745 71.82 20.3878 72.3847 20.3878 73.122C20.3878 73.8593 20.5698 74.4287 20.9338 74.83C21.3072 75.222 21.7738 75.418 22.3338 75.418ZM30.0996 70.854V74.606C30.0996 74.8673 30.1602 75.0587 30.2816 75.18C30.4122 75.292 30.6269 75.348 30.9256 75.348H31.8356V77H30.6036C28.9516 77 28.1256 76.1973 28.1256 74.592V70.854H27.2016V69.244H28.1256V67.326H30.0996V69.244H31.8356V70.854H30.0996ZM36.2133 77.126C35.5786 77.126 35.0093 77.014 34.5053 76.79C34.0013 76.5567 33.6 76.244 33.3013 75.852C33.012 75.46 32.8533 75.026 32.8253 74.55H34.7993C34.8366 74.8487 34.9813 75.096 35.2333 75.292C35.4946 75.488 35.8166 75.586 36.1993 75.586C36.5726 75.586 36.862 75.5113 37.0673 75.362C37.282 75.2127 37.3893 75.0213 37.3893 74.788C37.3893 74.536 37.2586 74.3493 36.9973 74.228C36.7453 74.0973 36.3393 73.9573 35.7793 73.808C35.2006 73.668 34.7246 73.5233 34.3513 73.374C33.9873 73.2247 33.67 72.996 33.3993 72.688C33.138 72.38 33.0073 71.9647 33.0073 71.442C33.0073 71.0127 33.1286 70.6207 33.3713 70.266C33.6233 69.9113 33.978 69.6313 34.4353 69.426C34.902 69.2207 35.448 69.118 36.0733 69.118C36.9973 69.118 37.7346 69.3513 38.2853 69.818C38.836 70.2753 39.1393 70.896 39.1953 71.68H37.3193C37.2913 71.372 37.1606 71.1293 36.9273 70.952C36.7033 70.7653 36.4 70.672 36.0173 70.672C35.6626 70.672 35.3873 70.7373 35.1913 70.868C35.0046 70.9987 34.9113 71.1807 34.9113 71.414C34.9113 71.6753 35.042 71.876 35.3033 72.016C35.5646 72.1467 35.9706 72.282 36.5213 72.422C37.0813 72.562 37.5433 72.7067 37.9073 72.856C38.2713 73.0053 38.584 73.2387 38.8453 73.556C39.116 73.864 39.256 74.2747 39.2653 74.788C39.2653 75.236 39.1393 75.6373 38.8873 75.992C38.6446 76.3467 38.29 76.6267 37.8233 76.832C37.366 77.028 36.8293 77.126 36.2133 77.126ZM43.1562 70.854V74.606C43.1562 74.8673 43.2169 75.0587 43.3382 75.18C43.4689 75.292 43.6835 75.348 43.9822 75.348H44.8922V77H43.6602C42.0082 77 41.1822 76.1973 41.1822 74.592V70.854H40.2582V69.244H41.1822V67.326H43.1562V69.244H44.8922V70.854H43.1562ZM48.2619 70.448C48.5139 70.0373 48.8406 69.7153 49.2419 69.482C49.6526 69.2487 50.1193 69.132 50.6419 69.132V71.19H50.1239C49.5079 71.19 49.0413 71.3347 48.7239 71.624C48.4159 71.9133 48.2619 72.4173 48.2619 73.136V77H46.3019V69.244H48.2619V70.448ZM51.4581 73.094C51.4581 72.31 51.6121 71.6147 51.9201 71.008C52.2374 70.4013 52.6621 69.9347 53.1941 69.608C53.7354 69.2813 54.3374 69.118 55.0001 69.118C55.5788 69.118 56.0828 69.2347 56.5121 69.468C56.9508 69.7013 57.3008 69.9953 57.5621 70.35V69.244H59.5361V77H57.5621V75.866C57.3101 76.23 56.9601 76.5333 56.5121 76.776C56.0734 77.0093 55.5648 77.126 54.9861 77.126C54.3328 77.126 53.7354 76.958 53.1941 76.622C52.6621 76.286 52.2374 75.8147 51.9201 75.208C51.6121 74.592 51.4581 73.8873 51.4581 73.094ZM57.5621 73.122C57.5621 72.646 57.4688 72.24 57.2821 71.904C57.0954 71.5587 56.8434 71.2973 56.5261 71.12C56.2088 70.9333 55.8681 70.84 55.5041 70.84C55.1401 70.84 54.8041 70.9287 54.4961 71.106C54.1881 71.2833 53.9361 71.5447 53.7401 71.89C53.5534 72.226 53.4601 72.6273 53.4601 73.094C53.4601 73.5607 53.5534 73.9713 53.7401 74.326C53.9361 74.6713 54.1881 74.9373 54.4961 75.124C54.8134 75.3107 55.1494 75.404 55.5041 75.404C55.8681 75.404 56.2088 75.3153 56.5261 75.138C56.8434 74.9513 57.0954 74.69 57.2821 74.354C57.4688 74.0087 57.5621 73.598 57.5621 73.122ZM63.4104 70.364C63.6624 70.0093 64.0077 69.7153 64.4464 69.482C64.8944 69.2393 65.403 69.118 65.9724 69.118C66.635 69.118 67.2324 69.2813 67.7644 69.608C68.3057 69.9347 68.7304 70.4013 69.0384 71.008C69.3557 71.6053 69.5144 72.3007 69.5144 73.094C69.5144 73.8873 69.3557 74.592 69.0384 75.208C68.7304 75.8147 68.3057 76.286 67.7644 76.622C67.2324 76.958 66.635 77.126 65.9724 77.126C65.403 77.126 64.899 77.0093 64.4604 76.776C64.031 76.5427 63.681 76.2487 63.4104 75.894V80.696H61.4504V69.244H63.4104V70.364ZM67.5124 73.094C67.5124 72.6273 67.4144 72.226 67.2184 71.89C67.0317 71.5447 66.7797 71.2833 66.4624 71.106C66.1544 70.9287 65.8184 70.84 65.4544 70.84C65.0997 70.84 64.7637 70.9333 64.4464 71.12C64.1384 71.2973 63.8864 71.5587 63.6904 71.904C63.5037 72.2493 63.4104 72.6553 63.4104 73.122C63.4104 73.5887 63.5037 73.9947 63.6904 74.34C63.8864 74.6853 64.1384 74.9513 64.4464 75.138C64.7637 75.3153 65.0997 75.404 65.4544 75.404C65.8184 75.404 66.1544 75.3107 66.4624 75.124C66.7797 74.9373 67.0317 74.6713 67.2184 74.326C67.4144 73.9807 67.5124 73.57 67.5124 73.094ZM73.9067 77.126C73.272 77.126 72.7027 77.014 72.1987 76.79C71.6947 76.5567 71.2933 76.244 70.9947 75.852C70.7053 75.46 70.5467 75.026 70.5187 74.55H72.4927C72.53 74.8487 72.6747 75.096 72.9267 75.292C73.188 75.488 73.51 75.586 73.8927 75.586C74.266 75.586 74.5553 75.5113 74.7607 75.362C74.9753 75.2127 75.0827 75.0213 75.0827 74.788C75.0827 74.536 74.952 74.3493 74.6907 74.228C74.4387 74.0973 74.0327 73.9573 73.4727 73.808C72.894 73.668 72.418 73.5233 72.0447 73.374C71.6807 73.2247 71.3633 72.996 71.0927 72.688C70.8313 72.38 70.7007 71.9647 70.7007 71.442C70.7007 71.0127 70.822 70.6207 71.0647 70.266C71.3167 69.9113 71.6713 69.6313 72.1287 69.426C72.5953 69.2207 73.1413 69.118 73.7667 69.118C74.6907 69.118 75.428 69.3513 75.9787 69.818C76.5293 70.2753 76.8327 70.896 76.8887 71.68H75.0127C74.9847 71.372 74.854 71.1293 74.6207 70.952C74.3967 70.7653 74.0933 70.672 73.7107 70.672C73.356 70.672 73.0807 70.7373 72.8847 70.868C72.698 70.9987 72.6047 71.1807 72.6047 71.414C72.6047 71.6753 72.7353 71.876 72.9967 72.016C73.258 72.1467 73.664 72.282 74.2147 72.422C74.7747 72.562 75.2367 72.7067 75.6007 72.856C75.9647 73.0053 76.2773 73.2387 76.5387 73.556C76.8093 73.864 76.9493 74.2747 76.9587 74.788C76.9587 75.236 76.8327 75.6373 76.5807 75.992C76.338 76.3467 75.9833 76.6267 75.5167 76.832C75.0593 77.028 74.5227 77.126 73.9067 77.126Z" fill="white"/>
</svg>
