<svg width="43" height="43" viewBox="0 0 43 43" fill="none" xmlns="http://www.w3.org/2000/svg">
<path id="Vector" d="M0 0V43H43V0H0ZM3.90909 3.90909H39.0909V39.0909H3.90909V3.90909ZM11.7273 9.77273V20.5418V33.2082C23.3177 33.2082 25.6369 33.3646 27.8065 32.7196C29.0769 32.3286 32.5554 31.078 32.5554 26.6803C32.5554 24.7258 31.9695 21.42 28.1386 20.5991V20.5418H27.4171C29.3716 19.6623 30.6009 18.0032 30.6009 15.56C30.6009 14.9346 30.7765 9.77273 23.9355 9.77273H11.7273ZM15.6364 13.6818H23.4545C26.404 13.6818 26.6918 15.3495 26.6918 16.5945C26.6918 19.6319 23.5132 19.5455 23.4545 19.5455H15.6364V13.6818ZM15.6364 23.4545H24.9395C28.577 23.4545 28.6463 25.754 28.6463 26.3482C28.6463 29.3973 25.4963 29.3182 25.1151 29.3182H15.6364V23.4545Z" fill="#FC9F32"/>
</svg>
