<svg width="55" height="43" viewBox="0 0 55 43" fill="none" xmlns="http://www.w3.org/2000/svg">
<g id="Group 14">
<path id="Vector" d="M3.76852 43H12.5278V20.8335L0 11.1057V39.1195C0 41.2458 1.68056 43 3.76852 43Z" fill="#4285F4"/>
<path id="Vector_2" d="M42.4722 43H51.2314C53.3194 43 55 41.2458 55 39.0664V11.1057L42.5231 20.8866V43H42.4722Z" fill="#34A853"/>
<path id="Vector_3" d="M42.4722 3.92952V20.8867L54.949 11.1057V5.89634C54.949 1.05904 49.6527 -1.70513 45.9351 1.21851L42.4722 3.92952Z" fill="#FBBC04"/>
<path id="Vector_4" fill-rule="evenodd" clip-rule="evenodd" d="M12.4768 20.8334V3.92944L27.449 15.6772L42.4213 3.92944V20.8866L27.5 32.5812L12.4768 20.8334Z" fill="#EA4335"/>
<path id="Vector_5" d="M0 5.84312V11.0525L12.4769 20.8334V3.92946L8.96297 1.16529C5.2963 -1.7052 0 1.05897 0 5.84312Z" fill="#C5221F"/>
</g>
</svg>
