<svg width="46" height="46" viewBox="0 0 46 46" fill="none" xmlns="http://www.w3.org/2000/svg">
<g id="facebook">
<path id="Vector" d="M40.0584 3.83331H5.94171C5.38254 3.83331 4.84628 4.05544 4.45089 4.45083C4.0555 4.84622 3.83337 5.38248 3.83337 5.94165V40.0583C3.83337 40.3352 3.88791 40.6093 3.99386 40.8651C4.09982 41.1209 4.25511 41.3534 4.45089 41.5491C4.64667 41.7449 4.87909 41.9002 5.13488 42.0062C5.39068 42.1121 5.66484 42.1666 5.94171 42.1666H24.3034V27.3125H19.32V21.5625H24.3034V17.25C24.2001 16.2375 24.3197 15.2147 24.6536 14.2533C24.9875 13.292 25.5277 12.4153 26.2363 11.6848C26.9449 10.9543 27.8047 10.3876 28.7555 10.0246C29.7062 9.66158 30.7249 9.51096 31.74 9.58331C33.2318 9.57413 34.7229 9.65093 36.2059 9.81331V14.9883H33.1584C30.7434 14.9883 30.2834 16.1383 30.2834 17.8058V21.505H36.0334L35.2859 27.255H30.2834V42.1666H40.0584C40.3352 42.1666 40.6094 42.1121 40.8652 42.0062C41.121 41.9002 41.3534 41.7449 41.5492 41.5491C41.745 41.3534 41.9003 41.1209 42.0062 40.8651C42.1122 40.6093 42.1667 40.3352 42.1667 40.0583V5.94165C42.1667 5.66478 42.1122 5.39062 42.0062 5.13482C41.9003 4.87903 41.745 4.64661 41.5492 4.45083C41.3534 4.25505 41.121 4.09975 40.8652 3.9938C40.6094 3.88785 40.3352 3.83331 40.0584 3.83331Z" fill="white"/>
</g>
</svg>
