<svg width="68" height="73" viewBox="0 0 68 73" fill="none" xmlns="http://www.w3.org/2000/svg">
<path d="M21.326 18.3461H30.3792V19.1412H22.1559V25.1258H29.8888V25.921H22.1559V32.4915H30.4735V33.2866H21.326V18.3461ZM31.1902 18.3461H32.1521L36.4147 24.9166L40.7716 18.3461L46.6976 10L36.9617 25.6071L41.9787 33.2866H40.9791L36.4147 26.2976L31.8315 33.2866H30.8507L35.9055 25.6071L31.1902 18.3461ZM42.337 19.1412V18.3461H52.654V19.1412H47.901V33.2866H47.0711V19.1412H42.337ZM10 18.3461H11.0374L25.3418 42L19.4305 33.2866L10.8676 19.476L10.8299 33.2866H10V18.3461ZM52.5703 32.2515C52.4008 32.2515 52.2736 32.1063 52.2736 31.9187C52.2736 31.7311 52.4008 31.586 52.5703 31.586C52.7419 31.586 52.8671 31.7311 52.8671 31.9187C52.8671 32.1063 52.7419 32.2515 52.5703 32.2515ZM53.3858 31.376H53.8299C53.8359 31.6418 54.0115 31.8205 54.2699 31.8205C54.5585 31.8205 54.722 31.6284 54.722 31.2688V28.9907H55.1742V31.271C55.1742 31.9187 54.8351 32.2917 54.2739 32.2917C53.7471 32.2917 53.3858 31.9299 53.3858 31.376ZM55.7656 31.347H56.2137C56.252 31.653 56.5225 31.8473 56.912 31.8473C57.2754 31.8473 57.5418 31.6396 57.5418 31.3537C57.5418 31.108 57.3723 30.9606 56.9867 30.8601L56.6113 30.7596C56.0845 30.6234 55.8443 30.3419 55.8443 29.8685C55.8443 29.2945 56.2682 28.9126 56.904 28.9126C57.4954 28.9126 57.9273 29.2945 57.9536 29.8372H57.5135C57.4712 29.5401 57.237 29.3548 56.8979 29.3548C56.5407 29.3548 56.3025 29.5446 56.3025 29.835C56.3025 30.065 56.4559 30.1968 56.8353 30.295L57.1563 30.3821C57.7537 30.5362 58 30.8043 58 31.2889C58 31.9053 57.568 32.2917 56.8777 32.2917C56.2318 32.2917 55.7979 31.9232 55.7656 31.347Z" fill="#FD9A3E"/>
<path d="M15.324 67H13.364L8.926 60.294V67H6.966V57.214H8.926L13.364 63.934V57.214H15.324V67ZM19.2209 58.81V61.26H22.5109V62.814H19.2209V65.404H22.9309V67H17.2609V57.214H22.9309V58.81H19.2209ZM30.5641 67L28.4501 63.71L26.5321 67H24.3201L27.4001 62.072L24.2781 57.228H26.5321L28.6461 60.504L30.5501 57.228H32.7621L29.6961 62.142L32.8181 67H30.5641ZM40.9598 57.228V58.81H38.3558V67H36.3958V58.81H33.7918V57.228H40.9598ZM51.4238 57.228V64.088C51.4238 65.04 51.1484 65.782 50.5978 66.314C50.0471 66.8367 49.3098 67.098 48.3858 67.098C47.4524 67.098 46.6964 66.8273 46.1178 66.286C45.5484 65.7447 45.2638 64.9887 45.2638 64.018H47.2238C47.2331 64.438 47.3311 64.7647 47.5178 64.998C47.7138 65.2313 47.9938 65.348 48.3578 65.348C48.7124 65.348 48.9831 65.236 49.1698 65.012C49.3564 64.788 49.4498 64.48 49.4498 64.088V57.228H51.4238ZM57.0841 67.098C56.4028 67.098 55.7868 66.9813 55.2361 66.748C54.6948 66.5147 54.2655 66.1787 53.9481 65.74C53.6308 65.3013 53.4675 64.7833 53.4581 64.186H55.5581C55.5861 64.5873 55.7261 64.9047 55.9781 65.138C56.2395 65.3713 56.5941 65.488 57.0421 65.488C57.4995 65.488 57.8588 65.3807 58.1201 65.166C58.3815 64.942 58.5121 64.6527 58.5121 64.298C58.5121 64.0087 58.4235 63.7707 58.2461 63.584C58.0688 63.3973 57.8448 63.2527 57.5741 63.15C57.3128 63.038 56.9488 62.9167 56.4821 62.786C55.8475 62.5993 55.3295 62.4173 54.9281 62.24C54.5361 62.0533 54.1955 61.778 53.9061 61.414C53.6261 61.0407 53.4861 60.546 53.4861 59.93C53.4861 59.3513 53.6308 58.8473 53.9201 58.418C54.2095 57.9887 54.6155 57.662 55.1381 57.438C55.6608 57.2047 56.2581 57.088 56.9301 57.088C57.9381 57.088 58.7548 57.3353 59.3801 57.83C60.0148 58.3153 60.3648 58.9967 60.4301 59.874H58.2741C58.2555 59.538 58.1108 59.2627 57.8401 59.048C57.5788 58.824 57.2288 58.712 56.7901 58.712C56.4075 58.712 56.0995 58.81 55.8661 59.006C55.6421 59.202 55.5301 59.4867 55.5301 59.86C55.5301 60.1213 55.6141 60.3407 55.7821 60.518C55.9595 60.686 56.1741 60.826 56.4261 60.938C56.6875 61.0407 57.0515 61.162 57.5181 61.302C58.1528 61.4887 58.6708 61.6753 59.0721 61.862C59.4735 62.0487 59.8188 62.3287 60.1081 62.702C60.3975 63.0753 60.5421 63.5653 60.5421 64.172C60.5421 64.6947 60.4068 65.18 60.1361 65.628C59.8655 66.076 59.4688 66.4353 58.9461 66.706C58.4235 66.9673 57.8028 67.098 57.0841 67.098Z" fill="white"/>
</svg>
