<svg width="56" height="79" viewBox="0 0 56 79" fill="none" xmlns="http://www.w3.org/2000/svg">
<path fill-rule="evenodd" clip-rule="evenodd" d="M42.28 44.8L28 48.88L13.72 44.8L10.66 10.12H45.34C44.32 21.6787 43.3 33.2413 42.28 44.8ZM43.1128 12.16H12.8873L15.6285 43.2222L28 46.7603L40.3715 43.2222L43.1128 12.16ZM19.6368 32.56H23.7168L23.8164 35.11L28 36.5364L32.1836 35.11L32.4864 30.52H23.5136L23.3064 26.44H32.6936L32.9964 22.36H18.9236L18.6168 18.28H37.2836L36.7736 26.44L36.0564 38.17L28 40.8236L19.9436 38.17L19.6368 32.56Z" fill="#FFA34F"/>
<path d="M14.99 68.1C14.99 67.1387 15.2047 66.28 15.634 65.524C16.0727 64.7587 16.6653 64.166 17.412 63.746C18.168 63.3167 19.0127 63.102 19.946 63.102C21.038 63.102 21.9947 63.382 22.816 63.942C23.6373 64.502 24.2113 65.2767 24.538 66.266H22.284C22.06 65.7993 21.7427 65.4493 21.332 65.216C20.9307 64.9827 20.464 64.866 19.932 64.866C19.3627 64.866 18.854 65.0013 18.406 65.272C17.9673 65.5333 17.622 65.9067 17.37 66.392C17.1273 66.8773 17.006 67.4467 17.006 68.1C17.006 68.744 17.1273 69.3133 17.37 69.808C17.622 70.2933 17.9673 70.6713 18.406 70.942C18.854 71.2033 19.3627 71.334 19.932 71.334C20.464 71.334 20.9307 71.2173 21.332 70.984C21.7427 70.7413 22.06 70.3867 22.284 69.92H24.538C24.2113 70.9187 23.6373 71.698 22.816 72.258C22.004 72.8087 21.0473 73.084 19.946 73.084C19.0127 73.084 18.168 72.874 17.412 72.454C16.6653 72.0247 16.0727 71.432 15.634 70.676C15.2047 69.92 14.99 69.0613 14.99 68.1ZM29.5861 73.098C28.9048 73.098 28.2888 72.9813 27.7381 72.748C27.1968 72.5147 26.7674 72.1787 26.4501 71.74C26.1328 71.3013 25.9694 70.7833 25.9601 70.186H28.0601C28.0881 70.5873 28.2281 70.9047 28.4801 71.138C28.7414 71.3713 29.0961 71.488 29.5441 71.488C30.0014 71.488 30.3608 71.3807 30.6221 71.166C30.8834 70.942 31.0141 70.6527 31.0141 70.298C31.0141 70.0087 30.9254 69.7707 30.7481 69.584C30.5708 69.3973 30.3468 69.2527 30.0761 69.15C29.8148 69.038 29.4508 68.9167 28.9841 68.786C28.3494 68.5993 27.8314 68.4173 27.4301 68.24C27.0381 68.0533 26.6974 67.778 26.4081 67.414C26.1281 67.0407 25.9881 66.546 25.9881 65.93C25.9881 65.3513 26.1328 64.8473 26.4221 64.418C26.7114 63.9887 27.1174 63.662 27.6401 63.438C28.1628 63.2047 28.7601 63.088 29.4321 63.088C30.4401 63.088 31.2568 63.3353 31.8821 63.83C32.5168 64.3153 32.8668 64.9967 32.9321 65.874H30.7761C30.7574 65.538 30.6128 65.2627 30.3421 65.048C30.0808 64.824 29.7308 64.712 29.2921 64.712C28.9094 64.712 28.6014 64.81 28.3681 65.006C28.1441 65.202 28.0321 65.4867 28.0321 65.86C28.0321 66.1213 28.1161 66.3407 28.2841 66.518C28.4614 66.686 28.6761 66.826 28.9281 66.938C29.1894 67.0407 29.5534 67.162 30.0201 67.302C30.6548 67.4887 31.1728 67.6753 31.5741 67.862C31.9754 68.0487 32.3208 68.3287 32.6101 68.702C32.8994 69.0753 33.0441 69.5653 33.0441 70.172C33.0441 70.6947 32.9088 71.18 32.6381 71.628C32.3674 72.076 31.9708 72.4353 31.4481 72.706C30.9254 72.9673 30.3048 73.098 29.5861 73.098ZM38.1173 73.098C37.436 73.098 36.82 72.9813 36.2693 72.748C35.728 72.5147 35.2987 72.1787 34.9813 71.74C34.664 71.3013 34.5007 70.7833 34.4913 70.186H36.5913C36.6193 70.5873 36.7593 70.9047 37.0113 71.138C37.2727 71.3713 37.6273 71.488 38.0753 71.488C38.5327 71.488 38.892 71.3807 39.1533 71.166C39.4147 70.942 39.5453 70.6527 39.5453 70.298C39.5453 70.0087 39.4567 69.7707 39.2793 69.584C39.102 69.3973 38.878 69.2527 38.6073 69.15C38.346 69.038 37.982 68.9167 37.5153 68.786C36.8807 68.5993 36.3627 68.4173 35.9613 68.24C35.5693 68.0533 35.2287 67.778 34.9393 67.414C34.6593 67.0407 34.5193 66.546 34.5193 65.93C34.5193 65.3513 34.664 64.8473 34.9533 64.418C35.2427 63.9887 35.6487 63.662 36.1713 63.438C36.694 63.2047 37.2913 63.088 37.9633 63.088C38.9713 63.088 39.788 63.3353 40.4133 63.83C41.048 64.3153 41.398 64.9967 41.4633 65.874H39.3073C39.2887 65.538 39.144 65.2627 38.8733 65.048C38.612 64.824 38.262 64.712 37.8233 64.712C37.4407 64.712 37.1327 64.81 36.8993 65.006C36.6753 65.202 36.5633 65.4867 36.5633 65.86C36.5633 66.1213 36.6473 66.3407 36.8153 66.518C36.9927 66.686 37.2073 66.826 37.4593 66.938C37.7207 67.0407 38.0847 67.162 38.5513 67.302C39.186 67.4887 39.704 67.6753 40.1053 67.862C40.5067 68.0487 40.852 68.3287 41.1413 68.702C41.4307 69.0753 41.5753 69.5653 41.5753 70.172C41.5753 70.6947 41.44 71.18 41.1693 71.628C40.8987 72.076 40.502 72.4353 39.9793 72.706C39.4567 72.9673 38.836 73.098 38.1173 73.098Z" fill="white"/>
</svg>
