<svg width="37" height="37" viewBox="0 0 37 37" fill="none" xmlns="http://www.w3.org/2000/svg">
<g id="github">
<circle id="Ellipse 1" cx="18.5" cy="18.5" r="18.5" fill="white"/>
<path id="Vector" d="M19 7C12.373 7 7 12.373 7 19C7 24.623 10.872 29.328 16.092 30.63C16.036 30.468 16 30.28 16 30.047V27.996C15.513 27.996 14.697 27.996 14.492 27.996C13.671 27.996 12.941 27.643 12.587 26.987C12.194 26.258 12.126 25.143 11.152 24.461C10.863 24.234 11.083 23.975 11.416 24.01C12.031 24.184 12.541 24.606 13.021 25.232C13.499 25.859 13.724 26.001 14.617 26.001C15.05 26.001 15.698 25.976 16.308 25.88C16.636 25.047 17.203 24.28 17.896 23.918C13.9 23.507 11.993 21.519 11.993 18.82C11.993 17.658 12.488 16.534 13.329 15.587C13.053 14.647 12.706 12.73 13.435 12C15.233 12 16.32 13.166 16.581 13.481C17.477 13.174 18.461 13 19.495 13C20.531 13 21.519 13.174 22.417 13.483C22.675 13.17 23.763 12 25.565 12C26.297 12.731 25.946 14.656 25.667 15.594C26.503 16.539 26.995 17.66 26.995 18.82C26.995 21.517 25.091 23.504 21.101 23.917C22.199 24.49 23 26.1 23 27.313V30.047C23 30.151 22.977 30.226 22.965 30.315C27.641 28.676 31 24.236 31 19C31 12.373 25.627 7 19 7Z" fill="#FD9A3E"/>
</g>
</svg>
