<svg width="54" height="79" viewBox="0 0 54 79" fill="none" xmlns="http://www.w3.org/2000/svg">
<path d="M10 10L13 44L27 48L41 44C42 32.667 43 21.333 44 10H10ZM12.1836 12H41.8164L39.1289 42.4551L27 45.9199L14.8711 42.4551L12.1836 12ZM19.5508 18L18.5898 30H31.5801L31.1699 35L27 35.6191L22.8809 35L22.6992 33H18.8398L19.2305 38L26.9902 40L34.7598 38L35.75 26H23.0898L23.4102 22H31.7695L32 24H35.6992L35 18H19.5508Z" fill="#FFA34F"/>
<path d="M17.072 63.228V73H15.112V68.842H10.926V73H8.966V63.228H10.926V67.246H15.112V63.228H17.072ZM25.6512 63.228V64.81H23.0472V73H21.0872V64.81H18.4832V63.228H25.6512ZM37.7352 63.228V73H35.7752V66.644L33.1572 73H31.6732L29.0412 66.644V73H27.0812V63.228H29.3072L32.4152 70.494L35.5232 63.228H37.7352ZM41.633 71.446H44.853V73H39.673V63.228H41.633V71.446Z" fill="white"/>
</svg>
