<svg width="36" height="37" viewBox="0 0 36 37" fill="none" xmlns="http://www.w3.org/2000/svg">
<g id="Icon_6_">
<path id="Background_7_" d="M9.15118 0H8.18365C7.37738 0.0414334 6.32923 0.0828667 5.88578 0.207167C5.16013 0.3729 4.4748 0.580067 3.91041 0.870101C3.2654 1.20157 2.66069 1.65733 2.13662 2.19597C1.61254 2.7346 1.20941 3.31467 0.846585 4.01904C0.56439 4.5991 0.322508 5.30347 0.201568 6.00784C0.120941 6.50504 0.0403135 7.58231 0 8.41097V28.589C0.0403135 29.4177 0.0806271 30.495 0.201568 30.9507C0.362822 31.6965 0.56439 32.4009 0.846585 32.981C1.16909 33.6439 1.61254 34.2654 2.13662 34.804C2.66069 35.3427 3.22508 35.757 3.91041 36.1299C4.4748 36.4199 5.16013 36.6685 5.84546 36.7928C6.32923 36.8757 7.37738 36.9586 8.18365 37H27.8163C28.6226 36.9586 29.6708 36.9171 30.1142 36.7928C30.8399 36.6271 31.5252 36.4199 32.0896 36.1299C32.7346 35.7984 33.3393 35.3427 33.8634 34.804C34.3875 34.2654 34.7906 33.6853 35.1534 32.981C35.4356 32.4009 35.6775 31.6965 35.7984 30.9922C35.8791 30.495 35.9597 29.4177 36 28.589V8.41097C35.9597 7.58231 35.9194 6.50504 35.7984 6.04927C35.6372 5.30347 35.4356 4.5991 35.1534 4.01904C34.8309 3.3561 34.3875 2.7346 33.8634 2.19597C33.3393 1.65733 32.7749 1.243 32.0896 0.870101C31.5252 0.580067 30.8399 0.331467 30.1545 0.207167C29.6708 0.1243 28.6226 0.0414334 27.8163 0H9.15118Z" fill="url(#paint0_linear_624_474)"/>
<path id="WhatsApp-Icon" d="M24.551 20.4681C24.2285 20.3023 22.616 19.5151 22.3338 19.3908C22.0516 19.2665 21.8097 19.2251 21.6081 19.5565C21.4065 19.888 20.7615 20.6338 20.6003 20.841C20.3987 21.0481 20.2375 21.0896 19.9149 20.9238C19.5924 20.7581 18.5443 20.4266 17.2946 19.3079C16.327 18.4378 15.682 17.3606 15.4805 17.0291C15.2789 16.6976 15.4805 16.5319 15.6417 16.3662C15.803 16.2004 15.9642 15.9933 16.1255 15.7861C16.2867 15.5789 16.327 15.4546 16.448 15.2475C16.5689 15.0403 16.4883 14.8331 16.4077 14.6674C16.327 14.5017 15.682 12.8857 15.3998 12.2228C15.1176 11.6013 14.8758 11.6842 14.6742 11.6427H14.0695C13.8679 11.6427 13.5051 11.7256 13.2229 12.0571C12.9407 12.3885 12.0941 13.1758 12.0941 14.7917C12.0941 16.4076 13.2632 17.9406 13.4245 18.1892C13.5857 18.3964 15.7223 21.7111 18.9474 23.1198C19.7134 23.4513 20.3181 23.6584 20.8018 23.8242C21.5678 24.0728 22.2934 24.0313 22.8578 23.9485C23.4625 23.8656 24.7929 23.1612 25.0348 22.4154C25.317 21.6696 25.317 21.0067 25.2363 20.8824C25.0751 20.7167 24.8735 20.6338 24.551 20.4681ZM18.383 29.0033C16.448 29.0033 14.5936 28.4647 12.9407 27.4703L12.5376 27.2217L8.50621 28.299L9.59468 24.2799L9.3528 23.8656C8.30464 22.1254 7.74025 20.1366 7.74025 18.0649C7.74025 12.0571 12.5376 7.16794 18.4233 7.16794C21.205 7.16794 23.906 8.28665 25.9217 10.3583C27.9373 12.43 29.0258 15.1646 29.0258 18.0649C29.0258 24.0728 24.2285 29.0033 18.383 29.0033ZM27.4536 8.78385C25.0348 6.29784 21.8097 4.93054 18.383 4.93054C11.3282 4.93054 5.56332 10.8141 5.56332 18.0649C5.56332 20.3852 6.16803 22.6226 7.25649 24.6114L5.44238 31.4065L12.2151 29.5834C14.0695 30.6192 16.2061 31.1993 18.3427 31.1993C25.3976 31.1993 31.1624 25.3158 31.1624 18.0649C31.2027 14.5845 29.8724 11.2698 27.4536 8.78385Z" fill="white"/>
</g>
<defs>
<linearGradient id="paint0_linear_624_474" x1="18.0121" y1="0.00828667" x2="18.0121" y2="36.9751" gradientUnits="userSpaceOnUse">
<stop stop-color="#62FA7F"/>
<stop offset="0.686" stop-color="#22CC40"/>
<stop offset="1" stop-color="#05B723"/>
</linearGradient>
</defs>
</svg>
