<svg width="46" height="46" viewBox="0 0 46 46" fill="none" xmlns="http://www.w3.org/2000/svg">
<g id="instagram">
<path id="Vector" d="M23 18.2466C22.0599 18.2466 21.1409 18.5254 20.3592 19.0477C19.5775 19.57 18.9683 20.3124 18.6085 21.181C18.2488 22.0495 18.1546 23.0053 18.338 23.9273C18.5215 24.8494 18.9742 25.6963 19.6389 26.3611C20.3037 27.0259 21.1507 27.4786 22.0727 27.662C22.9948 27.8454 23.9505 27.7513 24.8191 27.3915C25.6876 27.0317 26.43 26.4225 26.9523 25.6408C27.4746 24.8591 27.7534 23.9401 27.7534 23C27.7534 22.3758 27.6304 21.7577 27.3916 21.181C27.1527 20.6043 26.8025 20.0803 26.3612 19.6389C25.9198 19.1975 25.3958 18.8473 24.8191 18.6085C24.2424 18.3696 23.6243 18.2466 23 18.2466ZM42.0325 13.5508C42.0225 12.0707 41.7499 10.6041 41.2275 9.21915C40.8428 8.20573 40.2476 7.28541 39.4811 6.51892C38.7146 5.75243 37.7943 5.15719 36.7809 4.77248C35.3959 4.25012 33.9293 3.97756 32.4492 3.96748C29.9767 3.83331 29.2484 3.83331 23 3.83331C16.7517 3.83331 16.0234 3.83331 13.5509 3.96748C12.0707 3.97756 10.6041 4.25012 9.21921 4.77248C8.20579 5.15719 7.28547 5.75243 6.51898 6.51892C5.75249 7.28541 5.15725 8.20573 4.77254 9.21915C4.25018 10.6041 3.97762 12.0707 3.96754 13.5508C3.83337 16.0233 3.83337 16.7516 3.83337 23C3.83337 29.2483 3.83337 29.9766 3.96754 32.4491C3.98817 33.9345 4.26036 35.4056 4.77254 36.8C5.15554 37.8088 5.75029 38.7238 6.51671 39.4833C7.27991 40.2544 8.2022 40.8496 9.21921 41.2275C10.6041 41.7498 12.0707 42.0224 13.5509 42.0325C16.0234 42.1666 16.7517 42.1666 23 42.1666C29.2484 42.1666 29.9767 42.1666 32.4492 42.0325C33.9293 42.0224 35.3959 41.7498 36.7809 41.2275C37.7979 40.8496 38.7202 40.2544 39.4834 39.4833C40.2498 38.7238 40.8445 37.8088 41.2275 36.8C41.7494 35.4083 42.0219 33.9355 42.0325 32.4491C42.1667 29.9766 42.1667 29.2483 42.1667 23C42.1667 16.7516 42.1667 16.0233 42.0325 13.5508ZM37.1642 28.8841C37.1027 30.0669 36.8503 31.232 36.4167 32.3341C36.0446 33.2535 35.4915 34.0887 34.7901 34.7901C34.0888 35.4914 33.2536 36.0446 32.3342 36.4166C31.2216 36.826 30.0501 37.0526 28.865 37.0875C27.3509 37.0875 26.9484 37.0875 23 37.0875C19.0517 37.0875 18.6492 37.0875 17.135 37.0875C15.95 37.0526 14.7785 36.826 13.6659 36.4166C12.7154 36.0634 11.8571 35.5 11.155 34.7683C10.4606 34.0807 9.92424 33.2501 9.58337 32.3341C9.17236 31.2227 8.95204 30.0498 8.93171 28.865C8.93171 27.3508 8.93171 26.9483 8.93171 23C8.93171 19.0516 8.93171 18.6491 8.93171 17.135C8.95204 15.9501 9.17236 14.7773 9.58337 13.6658C9.93658 12.7153 10.5001 11.857 11.2317 11.155C11.9223 10.4643 12.7521 9.92849 13.6659 9.58331C14.7785 9.17392 15.95 8.94738 17.135 8.91248C18.6492 8.91248 19.0517 8.91248 23 8.91248C26.9484 8.91248 27.3509 8.91248 28.865 8.91248C30.0501 8.94738 31.2216 9.17392 32.3342 9.58331C33.2847 9.93652 34.143 10.5 34.845 11.2316C35.5395 11.9192 36.0758 12.7499 36.4167 13.6658C36.8261 14.7784 37.0526 15.95 37.0875 17.135C37.0875 18.6491 37.0875 19.0516 37.0875 23C37.0875 26.9483 37.2217 27.3508 37.1642 28.865V28.8841ZM34.0975 14.6241C33.8693 14.005 33.5095 13.4428 33.043 12.9762C32.5764 12.5097 32.0142 12.1499 31.395 11.9216C30.5449 11.627 29.6496 11.4842 28.75 11.5C27.255 11.5 26.8334 11.5 23 11.5C19.1667 11.5 18.745 11.5 17.25 11.5C16.3459 11.5088 15.4504 11.6775 14.605 11.9983C13.9954 12.2162 13.4391 12.5613 12.9732 13.0107C12.5072 13.4601 12.1422 14.0036 11.9025 14.605C11.6242 15.4586 11.4882 16.3522 11.5 17.25C11.5 18.745 11.5 19.1666 11.5 23C11.5 26.8333 11.5 27.255 11.5 28.75C11.519 29.6531 11.6874 30.5469 11.9984 31.395C12.2266 32.0141 12.5864 32.5763 13.053 33.0429C13.5195 33.5095 14.0818 33.8693 14.7009 34.0975C15.5187 34.3982 16.3792 34.5665 17.25 34.5958C18.745 34.5958 19.1667 34.5958 23 34.5958C26.8334 34.5958 27.255 34.5958 28.75 34.5958C29.6542 34.587 30.5497 34.4183 31.395 34.0975C32.0142 33.8693 32.5764 33.5095 33.043 33.0429C33.5095 32.5763 33.8693 32.0141 34.0975 31.395C34.4183 30.5496 34.587 29.6541 34.5959 28.75C34.5959 27.255 34.5959 26.8333 34.5959 23C34.5959 19.1666 34.5959 18.745 34.5959 17.25C34.5964 16.3449 34.4274 15.4478 34.0975 14.605V14.6241ZM23 30.3216C22.0394 30.3216 21.0883 30.1321 20.2011 29.7639C19.3138 29.3958 18.508 28.8562 17.8296 28.176C17.1513 27.4959 16.6138 26.6886 16.2479 25.8004C15.882 24.9122 15.695 23.9606 15.6975 23C15.6975 21.5511 16.1274 20.1347 16.9328 18.9303C17.7382 17.7258 18.8828 16.7874 20.2218 16.2338C21.5607 15.6802 23.0339 15.5364 24.4547 15.8204C25.8754 16.1045 27.18 16.8037 28.2032 17.8296C29.2264 18.8555 29.9222 20.1619 30.2025 21.5834C30.4829 23.0049 30.3351 24.4776 29.778 25.8152C29.2209 27.1527 28.2795 28.2948 27.073 29.0971C25.8664 29.8993 24.4489 30.3254 23 30.3216ZM30.6667 17.1158C30.243 17.071 29.8509 16.8709 29.5659 16.5542C29.281 16.2374 29.1233 15.8265 29.1233 15.4004C29.1233 14.9743 29.281 14.5633 29.5659 14.2466C29.8509 13.9299 30.243 13.7298 30.6667 13.685C31.0904 13.7298 31.4825 13.9299 31.7675 14.2466C32.0525 14.5633 32.2101 14.9743 32.2101 15.4004C32.2101 15.8265 32.0525 16.2374 31.7675 16.5542C31.4825 16.8709 31.0904 17.071 30.6667 17.1158Z" fill="white"/>
</g>
</svg>
