<svg width="33" height="43" viewBox="0 0 33 43" fill="none" xmlns="http://www.w3.org/2000/svg">
<g id="Java Script">
<path id="Vector" d="M32.7282 10.409C32.7282 9.9819 33.0357 10.52 25.7155 1.3719C25.4593 0.842316 26.4672 1.01315 1.12406 1.01315C0.897525 1.01315 0.680265 1.10314 0.520077 1.26333C0.35989 1.42352 0.269897 1.64078 0.269897 1.86732V41.159C0.269897 41.3855 0.35989 41.6028 0.520077 41.763C0.680265 41.9232 0.897525 42.0131 1.12406 42.0131H31.8741C32.1006 42.0131 32.3179 41.9232 32.4781 41.763C32.6382 41.6028 32.7282 41.3855 32.7282 41.159V10.409ZM31.0199 40.3048H1.97823V2.72148H24.1866V8.70065C24.1866 9.38027 24.4565 10.032 24.9371 10.5126C25.4177 10.9932 26.0695 11.2631 26.7491 11.2631H31.0199V40.3048Z" fill="#FC9F32"/>
<path id="Vector_2" d="M13.9366 27.4923V32.6173C13.9366 32.8438 13.8466 33.0611 13.6864 33.2213C13.5262 33.3815 13.3089 33.4715 13.0824 33.4715C12.8559 33.4715 12.6386 33.3815 12.4784 33.2213C12.3182 33.0611 12.2282 32.8438 12.2282 32.6173V31.7631C12.2282 31.5366 12.1382 31.3193 11.9781 31.1591C11.8179 30.9989 11.6006 30.909 11.3741 30.909C11.1475 30.909 10.9303 30.9989 10.7701 31.1591C10.6099 31.3193 10.5199 31.5366 10.5199 31.7631V32.6173C10.5199 33.2969 10.7899 33.9487 11.2704 34.4292C11.751 34.9098 12.4028 35.1798 13.0824 35.1798C13.762 35.1798 14.4138 34.9098 14.8944 34.4292C15.3749 33.9487 15.6449 33.2969 15.6449 32.6173V27.4923C15.6449 27.2658 15.5549 27.0485 15.3947 26.8883C15.2345 26.7281 15.0173 26.6381 14.7907 26.6381C14.5642 26.6381 14.3469 26.7281 14.1867 26.8883C14.0266 27.0485 13.9366 27.2658 13.9366 27.4923ZM19.9157 30.0548C19.7468 30.0548 19.5816 30.0047 19.4412 29.9108C19.3007 29.817 19.1912 29.6836 19.1266 29.5275C19.0619 29.3714 19.045 29.1997 19.078 29.034C19.1109 28.8683 19.1923 28.7161 19.3117 28.5966C19.4312 28.4772 19.5834 28.3958 19.7491 28.3629C19.9148 28.3299 20.0865 28.3468 20.2426 28.4115C20.3987 28.4761 20.5321 28.5856 20.6259 28.7261C20.7198 28.8665 20.7699 29.0317 20.7699 29.2006C20.7699 29.4272 20.8599 29.6444 21.0201 29.8046C21.1803 29.9648 21.3975 30.0548 21.6241 30.0548C23.2555 30.0548 22.4782 26.6381 19.9157 26.6381C19.2361 26.6381 18.5843 26.9081 18.1038 27.3887C17.6232 27.8692 17.3532 28.521 17.3532 29.2006C17.3532 29.8802 17.6232 30.532 18.1038 31.0126C18.5843 31.4931 19.2361 31.7631 19.9157 31.7631C20.0847 31.7631 20.2498 31.8132 20.3903 31.9071C20.5307 32.0009 20.6402 32.1343 20.7049 32.2904C20.7695 32.4465 20.7864 32.6182 20.7535 32.7839C20.7205 32.9496 20.6392 33.1018 20.5197 33.2213C20.4003 33.3407 20.2481 33.4221 20.0824 33.455C19.9167 33.488 19.7449 33.4711 19.5889 33.4064C19.4328 33.3418 19.2994 33.2323 19.2055 33.0918C19.1117 32.9514 19.0616 32.7862 19.0616 32.6173C19.0616 32.3908 18.9716 32.1735 18.8114 32.0133C18.6512 31.8531 18.4339 31.7631 18.2074 31.7631C16.5759 31.7631 17.3532 35.1798 19.9157 35.1798C20.5953 35.1798 21.2471 34.9098 21.7277 34.4292C22.2083 33.9487 22.4782 33.2969 22.4782 32.6173C22.4782 31.9377 22.2083 31.2859 21.7277 30.8053C21.2471 30.3248 20.5953 30.0548 19.9157 30.0548Z" fill="#FC9F32"/>
<path id="Vector_3" d="M24.1865 38.5965H8.81152C8.13191 38.5965 7.48012 38.3265 6.99956 37.846C6.519 37.3654 6.24902 36.7136 6.24902 36.034V25.784C6.24902 25.1044 6.519 24.4526 6.99956 23.972C7.48012 23.4915 8.13191 23.2215 8.81152 23.2215H24.1865C24.8661 23.2215 25.5179 23.4915 25.9985 23.972C26.479 24.4526 26.749 25.1044 26.749 25.784V36.034C26.749 36.7136 26.479 37.3654 25.9985 37.846C25.5179 38.3265 24.8661 38.5965 24.1865 38.5965ZM8.81152 24.9298C8.58498 24.9298 8.36772 25.0198 8.20754 25.18C8.04735 25.3402 7.95736 25.5575 7.95736 25.784V36.034C7.95736 36.2605 8.04735 36.4778 8.20754 36.638C8.36772 36.7982 8.58498 36.8882 8.81152 36.8882H24.1865C24.4131 36.8882 24.6303 36.7982 24.7905 36.638C24.9507 36.4778 25.0407 36.2605 25.0407 36.034V25.784C25.0407 25.5575 24.9507 25.3402 24.7905 25.18C24.6303 25.0198 24.4131 24.9298 24.1865 24.9298H8.81152Z" fill="#FFFEFE"/>
<path id="Vector_4" d="M5.39486 6.13816C5.39486 6.3647 5.30486 6.58196 5.14468 6.74215C4.98449 6.90234 4.76723 6.99233 4.54069 6.99233C4.31415 6.99233 4.09689 6.90234 3.9367 6.74215C3.77652 6.58196 3.68652 6.3647 3.68652 6.13816C3.68652 5.91162 3.77652 5.69436 3.9367 5.53418C4.09689 5.37399 4.31415 5.284 4.54069 5.284C4.76723 5.284 4.98449 5.37399 5.14468 5.53418C5.30486 5.69436 5.39486 5.91162 5.39486 6.13816Z" fill="#F5C342"/>
<path id="Vector_5" d="M11.3741 6.99233H7.95744C7.7309 6.99233 7.51364 6.90234 7.35345 6.74215C7.19326 6.58196 7.10327 6.3647 7.10327 6.13816C7.10327 5.91162 7.19326 5.69436 7.35345 5.53418C7.51364 5.37399 7.7309 5.284 7.95744 5.284H11.3741C11.6006 5.284 11.8179 5.37399 11.9781 5.53418C12.1383 5.69436 12.2283 5.91162 12.2283 6.13816C12.2283 6.3647 12.1383 6.58196 11.9781 6.74215C11.8179 6.90234 11.6006 6.99233 11.3741 6.99233Z" fill="#FFFEFE"/>
<path id="Vector_6" d="M5.39486 9.55482C5.39486 9.78136 5.30486 9.99862 5.14468 10.1588C4.98449 10.319 4.76723 10.409 4.54069 10.409C4.31415 10.409 4.09689 10.319 3.9367 10.1588C3.77652 9.99862 3.68652 9.78136 3.68652 9.55482C3.68652 9.32828 3.77652 9.11102 3.9367 8.95083C4.09689 8.79065 4.31415 8.70065 4.54069 8.70065C4.76723 8.70065 4.98449 8.79065 5.14468 8.95083C5.30486 9.11102 5.39486 9.32828 5.39486 9.55482Z" fill="#F5C342"/>
<path id="Vector_7" d="M16.4991 10.409H7.95744C7.7309 10.409 7.51364 10.319 7.35345 10.1588C7.19326 9.99862 7.10327 9.78136 7.10327 9.55482C7.10327 9.32828 7.19326 9.11102 7.35345 8.95083C7.51364 8.79065 7.7309 8.70065 7.95744 8.70065H16.4991C16.7256 8.70065 16.9429 8.79065 17.1031 8.95083C17.2633 9.11102 17.3533 9.32828 17.3533 9.55482C17.3533 9.78136 17.2633 9.99862 17.1031 10.1588C16.9429 10.319 16.7256 10.409 16.4991 10.409Z" fill="#FFFEFE"/>
<path id="Vector_8" d="M5.39486 19.8048C5.39486 20.0313 5.30486 20.2486 5.14468 20.4088C4.98449 20.569 4.76723 20.659 4.54069 20.659C4.31415 20.659 4.09689 20.569 3.9367 20.4088C3.77652 20.2486 3.68652 20.0313 3.68652 19.8048C3.68652 19.5783 3.77652 19.361 3.9367 19.2008C4.09689 19.0406 4.31415 18.9506 4.54069 18.9506C4.76723 18.9506 4.98449 19.0406 5.14468 19.2008C5.30486 19.361 5.39486 19.5783 5.39486 19.8048Z" fill="#F5C342"/>
<path id="Vector_9" d="M11.3741 20.659H7.95744C7.7309 20.659 7.51364 20.569 7.35345 20.4088C7.19326 20.2486 7.10327 20.0314 7.10327 19.8048C7.10327 19.5783 7.19326 19.361 7.35345 19.2008C7.51364 19.0407 7.7309 18.9507 7.95744 18.9507H11.3741C11.6006 18.9507 11.8179 19.0407 11.9781 19.2008C12.1383 19.361 12.2283 19.5783 12.2283 19.8048C12.2283 20.0314 12.1383 20.2486 11.9781 20.4088C11.8179 20.569 11.6006 20.659 11.3741 20.659ZM16.4991 20.659H14.7908C14.5642 20.659 14.347 20.569 14.1868 20.4088C14.0266 20.2486 13.9366 20.0314 13.9366 19.8048C13.9366 19.5783 14.0266 19.361 14.1868 19.2008C14.347 19.0407 14.5642 18.9507 14.7908 18.9507H16.4991C16.7256 18.9507 16.9429 19.0407 17.1031 19.2008C17.2633 19.361 17.3533 19.5783 17.3533 19.8048C17.3533 20.0314 17.2633 20.2486 17.1031 20.4088C16.9429 20.569 16.7256 20.659 16.4991 20.659ZM13.0824 17.2423H11.3741C11.1476 17.2423 10.9303 17.1523 10.7701 16.9922C10.6099 16.832 10.5199 16.6147 10.5199 16.3882C10.5199 16.1616 10.6099 15.9444 10.7701 15.7842C10.9303 15.624 11.1476 15.534 11.3741 15.534H13.0824C13.309 15.534 13.5262 15.624 13.6864 15.7842C13.8466 15.9444 13.9366 16.1616 13.9366 16.3882C13.9366 16.6147 13.8466 16.832 13.6864 16.9922C13.5262 17.1523 13.309 17.2423 13.0824 17.2423ZM23.3324 17.2423H16.4991C16.2726 17.2423 16.0553 17.1523 15.8951 16.9922C15.7349 16.832 15.6449 16.6147 15.6449 16.3882C15.6449 16.1616 15.7349 15.9444 15.8951 15.7842C16.0553 15.624 16.2726 15.534 16.4991 15.534H23.3324C23.559 15.534 23.7762 15.624 23.9364 15.7842C24.0966 15.9444 24.1866 16.1616 24.1866 16.3882C24.1866 16.6147 24.0966 16.832 23.9364 16.9922C23.7762 17.1523 23.559 17.2423 23.3324 17.2423Z" fill="#FFFEFE"/>
<path id="Vector_10" d="M8.8116 12.9715C8.8116 13.198 8.72161 13.4153 8.56143 13.5755C8.40124 13.7357 8.18398 13.8256 7.95744 13.8256C7.7309 13.8256 7.51364 13.7357 7.35345 13.5755C7.19326 13.4153 7.10327 13.198 7.10327 12.9715C7.10327 12.7449 7.19326 12.5277 7.35345 12.3675C7.51364 12.2073 7.7309 12.1173 7.95744 12.1173C8.18398 12.1173 8.40124 12.2073 8.56143 12.3675C8.72161 12.5277 8.8116 12.7449 8.8116 12.9715Z" fill="#F5C342"/>
<path id="Vector_11" d="M21.6241 13.8256H11.3741C11.1475 13.8256 10.9303 13.7357 10.7701 13.5755C10.6099 13.4153 10.5199 13.198 10.5199 12.9715C10.5199 12.7449 10.6099 12.5277 10.7701 12.3675C10.9303 12.2073 11.1475 12.1173 11.3741 12.1173H21.6241C21.8506 12.1173 22.0679 12.2073 22.2281 12.3675C22.3882 12.5277 22.4782 12.7449 22.4782 12.9715C22.4782 13.198 22.3882 13.4153 22.2281 13.5755C22.0679 13.7357 21.8506 13.8256 21.6241 13.8256Z" fill="#FFFEFE"/>
<path id="Vector_12" d="M8.8116 16.3882C8.8116 16.6147 8.72161 16.832 8.56143 16.9922C8.40124 17.1523 8.18398 17.2423 7.95744 17.2423C7.7309 17.2423 7.51364 17.1523 7.35345 16.9922C7.19326 16.832 7.10327 16.6147 7.10327 16.3882C7.10327 16.1616 7.19326 15.9444 7.35345 15.7842C7.51364 15.624 7.7309 15.534 7.95744 15.534C8.18398 15.534 8.40124 15.624 8.56143 15.7842C8.72161 15.9444 8.8116 16.1616 8.8116 16.3882Z" fill="#F5C342"/>
</g>
</svg>
