<svg width="77" height="79" viewBox="0 0 77 79" fill="none" xmlns="http://www.w3.org/2000/svg">
<path d="M52.7282 20.409C52.7282 19.9819 53.0357 20.52 45.7155 11.3719C45.4593 10.8423 46.4672 11.0131 21.1241 11.0131C20.8975 11.0131 20.6803 11.1031 20.5201 11.2633C20.3599 11.4235 20.2699 11.6408 20.2699 11.8673V51.159C20.2699 51.3855 20.3599 51.6028 20.5201 51.763C20.6803 51.9232 20.8975 52.0131 21.1241 52.0131H51.8741C52.1006 52.0131 52.3179 51.9232 52.4781 51.763C52.6382 51.6028 52.7282 51.3855 52.7282 51.159V20.409ZM51.0199 50.3048H21.9782V12.7215H44.1866V18.7006C44.1866 19.3803 44.4565 20.032 44.9371 20.5126C45.4177 20.9932 46.0695 21.2631 46.7491 21.2631H51.0199V50.3048Z" fill="#FC9F32"/>
<path d="M33.9366 37.4923V42.6173C33.9366 42.8438 33.8466 43.0611 33.6864 43.2213C33.5262 43.3815 33.3089 43.4715 33.0824 43.4715C32.8559 43.4715 32.6386 43.3815 32.4784 43.2213C32.3182 43.0611 32.2282 42.8438 32.2282 42.6173V41.7631C32.2282 41.5366 32.1382 41.3193 31.9781 41.1591C31.8179 40.9989 31.6006 40.909 31.3741 40.909C31.1475 40.909 30.9303 40.9989 30.7701 41.1591C30.6099 41.3193 30.5199 41.5366 30.5199 41.7631V42.6173C30.5199 43.2969 30.7899 43.9487 31.2704 44.4292C31.751 44.9098 32.4028 45.1798 33.0824 45.1798C33.762 45.1798 34.4138 44.9098 34.8944 44.4292C35.3749 43.9487 35.6449 43.2969 35.6449 42.6173V37.4923C35.6449 37.2658 35.5549 37.0485 35.3947 36.8883C35.2345 36.7281 35.0173 36.6381 34.7907 36.6381C34.5642 36.6381 34.3469 36.7281 34.1867 36.8883C34.0266 37.0485 33.9366 37.2658 33.9366 37.4923ZM39.9157 40.0548C39.7468 40.0548 39.5816 40.0047 39.4412 39.9108C39.3007 39.817 39.1912 39.6836 39.1266 39.5275C39.0619 39.3714 39.045 39.1997 39.078 39.034C39.1109 38.8683 39.1923 38.7161 39.3117 38.5966C39.4312 38.4772 39.5834 38.3958 39.7491 38.3629C39.9148 38.3299 40.0865 38.3468 40.2426 38.4115C40.3987 38.4761 40.5321 38.5856 40.6259 38.7261C40.7198 38.8665 40.7699 39.0317 40.7699 39.2006C40.7699 39.4272 40.8599 39.6444 41.0201 39.8046C41.1803 39.9648 41.3975 40.0548 41.6241 40.0548C43.2555 40.0548 42.4782 36.6381 39.9157 36.6381C39.2361 36.6381 38.5843 36.9081 38.1038 37.3887C37.6232 37.8692 37.3532 38.521 37.3532 39.2006C37.3532 39.8802 37.6232 40.532 38.1038 41.0126C38.5843 41.4931 39.2361 41.7631 39.9157 41.7631C40.0847 41.7631 40.2498 41.8132 40.3903 41.9071C40.5307 42.0009 40.6402 42.1343 40.7049 42.2904C40.7695 42.4465 40.7864 42.6182 40.7535 42.7839C40.7205 42.9496 40.6392 43.1018 40.5197 43.2213C40.4003 43.3407 40.2481 43.4221 40.0824 43.455C39.9167 43.488 39.7449 43.4711 39.5889 43.4064C39.4328 43.3418 39.2994 43.2323 39.2055 43.0918C39.1117 42.9514 39.0616 42.7862 39.0616 42.6173C39.0616 42.3908 38.9716 42.1735 38.8114 42.0133C38.6512 41.8531 38.4339 41.7631 38.2074 41.7631C36.5759 41.7631 37.3532 45.1798 39.9157 45.1798C40.5953 45.1798 41.2471 44.9098 41.7277 44.4292C42.2083 43.9487 42.4782 43.2969 42.4782 42.6173C42.4782 41.9377 42.2083 41.2859 41.7277 40.8053C41.2471 40.3248 40.5953 40.0548 39.9157 40.0548Z" fill="#FC9F32"/>
<path d="M44.1865 48.5965H28.8115C28.1319 48.5965 27.4801 48.3265 26.9996 47.846C26.519 47.3654 26.249 46.7136 26.249 46.034V35.784C26.249 35.1044 26.519 34.4526 26.9996 33.972C27.4801 33.4915 28.1319 33.2215 28.8115 33.2215H44.1865C44.8661 33.2215 45.5179 33.4915 45.9985 33.972C46.479 34.4526 46.749 35.1044 46.749 35.784V46.034C46.749 46.7136 46.479 47.3654 45.9985 47.846C45.5179 48.3265 44.8661 48.5965 44.1865 48.5965ZM28.8115 34.9298C28.585 34.9298 28.3677 35.0198 28.2075 35.18C28.0473 35.3402 27.9574 35.5575 27.9574 35.784V46.034C27.9574 46.2605 28.0473 46.4778 28.2075 46.638C28.3677 46.7982 28.585 46.8882 28.8115 46.8882H44.1865C44.4131 46.8882 44.6303 46.7982 44.7905 46.638C44.9507 46.4778 45.0407 46.2605 45.0407 46.034V35.784C45.0407 35.5575 44.9507 35.3402 44.7905 35.18C44.6303 35.0198 44.4131 34.9298 44.1865 34.9298H28.8115Z" fill="#FFFEFE"/>
<path d="M25.3949 16.1382C25.3949 16.3647 25.3049 16.582 25.1447 16.7422C24.9845 16.9023 24.7672 16.9923 24.5407 16.9923C24.3142 16.9923 24.0969 16.9023 23.9367 16.7422C23.7765 16.582 23.6865 16.3647 23.6865 16.1382C23.6865 15.9116 23.7765 15.6944 23.9367 15.5342C24.0969 15.374 24.3142 15.284 24.5407 15.284C24.7672 15.284 24.9845 15.374 25.1447 15.5342C25.3049 15.6944 25.3949 15.9116 25.3949 16.1382Z" fill="#F5C342"/>
<path d="M31.3741 16.9923H27.9574C27.7309 16.9923 27.5136 16.9023 27.3535 16.7422C27.1933 16.582 27.1033 16.3647 27.1033 16.1382C27.1033 15.9116 27.1933 15.6944 27.3535 15.5342C27.5136 15.374 27.7309 15.284 27.9574 15.284H31.3741C31.6006 15.284 31.8179 15.374 31.9781 15.5342C32.1383 15.6944 32.2283 15.9116 32.2283 16.1382C32.2283 16.3647 32.1383 16.582 31.9781 16.7422C31.8179 16.9023 31.6006 16.9923 31.3741 16.9923Z" fill="#FFFEFE"/>
<path d="M25.3949 19.5548C25.3949 19.7814 25.3049 19.9986 25.1447 20.1588C24.9845 20.319 24.7672 20.409 24.5407 20.409C24.3142 20.409 24.0969 20.319 23.9367 20.1588C23.7765 19.9986 23.6865 19.7814 23.6865 19.5548C23.6865 19.3283 23.7765 19.111 23.9367 18.9508C24.0969 18.7906 24.3142 18.7007 24.5407 18.7007C24.7672 18.7007 24.9845 18.7906 25.1447 18.9508C25.3049 19.111 25.3949 19.3283 25.3949 19.5548Z" fill="#F5C342"/>
<path d="M36.4991 20.409H27.9574C27.7309 20.409 27.5136 20.319 27.3535 20.1588C27.1933 19.9986 27.1033 19.7814 27.1033 19.5548C27.1033 19.3283 27.1933 19.111 27.3535 18.9508C27.5136 18.7906 27.7309 18.7007 27.9574 18.7007H36.4991C36.7256 18.7007 36.9429 18.7906 37.1031 18.9508C37.2633 19.111 37.3533 19.3283 37.3533 19.5548C37.3533 19.7814 37.2633 19.9986 37.1031 20.1588C36.9429 20.319 36.7256 20.409 36.4991 20.409Z" fill="#FFFEFE"/>
<path d="M25.3949 29.8048C25.3949 30.0313 25.3049 30.2486 25.1447 30.4088C24.9845 30.569 24.7672 30.659 24.5407 30.659C24.3142 30.659 24.0969 30.569 23.9367 30.4088C23.7765 30.2486 23.6865 30.0313 23.6865 29.8048C23.6865 29.5783 23.7765 29.361 23.9367 29.2008C24.0969 29.0406 24.3142 28.9506 24.5407 28.9506C24.7672 28.9506 24.9845 29.0406 25.1447 29.2008C25.3049 29.361 25.3949 29.5783 25.3949 29.8048Z" fill="#F5C342"/>
<path d="M31.3741 30.659H27.9574C27.7309 30.659 27.5136 30.569 27.3535 30.4088C27.1933 30.2486 27.1033 30.0314 27.1033 29.8048C27.1033 29.5783 27.1933 29.361 27.3535 29.2008C27.5136 29.0407 27.7309 28.9507 27.9574 28.9507H31.3741C31.6006 28.9507 31.8179 29.0407 31.9781 29.2008C32.1383 29.361 32.2283 29.5783 32.2283 29.8048C32.2283 30.0314 32.1383 30.2486 31.9781 30.4088C31.8179 30.569 31.6006 30.659 31.3741 30.659ZM36.4991 30.659H34.7908C34.5642 30.659 34.347 30.569 34.1868 30.4088C34.0266 30.2486 33.9366 30.0314 33.9366 29.8048C33.9366 29.5783 34.0266 29.361 34.1868 29.2008C34.347 29.0407 34.5642 28.9507 34.7908 28.9507H36.4991C36.7256 28.9507 36.9429 29.0407 37.1031 29.2008C37.2633 29.361 37.3533 29.5783 37.3533 29.8048C37.3533 30.0314 37.2633 30.2486 37.1031 30.4088C36.9429 30.569 36.7256 30.659 36.4991 30.659ZM33.0824 27.2423H31.3741C31.1476 27.2423 30.9303 27.1523 30.7701 26.9922C30.6099 26.832 30.5199 26.6147 30.5199 26.3882C30.5199 26.1616 30.6099 25.9444 30.7701 25.7842C30.9303 25.624 31.1476 25.534 31.3741 25.534H33.0824C33.309 25.534 33.5262 25.624 33.6864 25.7842C33.8466 25.9444 33.9366 26.1616 33.9366 26.3882C33.9366 26.6147 33.8466 26.832 33.6864 26.9922C33.5262 27.1523 33.309 27.2423 33.0824 27.2423ZM43.3324 27.2423H36.4991C36.2726 27.2423 36.0553 27.1523 35.8951 26.9922C35.7349 26.832 35.6449 26.6147 35.6449 26.3882C35.6449 26.1616 35.7349 25.9444 35.8951 25.7842C36.0553 25.624 36.2726 25.534 36.4991 25.534H43.3324C43.559 25.534 43.7762 25.624 43.9364 25.7842C44.0966 25.9444 44.1866 26.1616 44.1866 26.3882C44.1866 26.6147 44.0966 26.832 43.9364 26.9922C43.7762 27.1523 43.559 27.2423 43.3324 27.2423Z" fill="#FFFEFE"/>
<path d="M28.8116 22.9715C28.8116 23.198 28.7216 23.4153 28.5614 23.5755C28.4012 23.7357 28.184 23.8256 27.9574 23.8256C27.7309 23.8256 27.5136 23.7357 27.3535 23.5755C27.1933 23.4153 27.1033 23.198 27.1033 22.9715C27.1033 22.7449 27.1933 22.5277 27.3535 22.3675C27.5136 22.2073 27.7309 22.1173 27.9574 22.1173C28.184 22.1173 28.4012 22.2073 28.5614 22.3675C28.7216 22.5277 28.8116 22.7449 28.8116 22.9715Z" fill="#F5C342"/>
<path d="M41.6241 23.8256H31.3741C31.1475 23.8256 30.9303 23.7357 30.7701 23.5755C30.6099 23.4153 30.5199 23.198 30.5199 22.9715C30.5199 22.7449 30.6099 22.5277 30.7701 22.3675C30.9303 22.2073 31.1475 22.1173 31.3741 22.1173H41.6241C41.8506 22.1173 42.0679 22.2073 42.2281 22.3675C42.3882 22.5277 42.4782 22.7449 42.4782 22.9715C42.4782 23.198 42.3882 23.4153 42.2281 23.5755C42.0679 23.7357 41.8506 23.8256 41.6241 23.8256Z" fill="#FFFEFE"/>
<path d="M28.8116 26.3882C28.8116 26.6147 28.7216 26.832 28.5614 26.9922C28.4012 27.1523 28.184 27.2423 27.9574 27.2423C27.7309 27.2423 27.5136 27.1523 27.3535 26.9922C27.1933 26.832 27.1033 26.6147 27.1033 26.3882C27.1033 26.1616 27.1933 25.9444 27.3535 25.7842C27.5136 25.624 27.7309 25.534 27.9574 25.534C28.184 25.534 28.4012 25.624 28.5614 25.7842C28.7216 25.9444 28.8116 26.1616 28.8116 26.3882Z" fill="#F5C342"/>
<path d="M6.664 63.228V70.088C6.664 71.04 6.38867 71.782 5.838 72.314C5.28733 72.8367 4.55 73.098 3.626 73.098C2.69267 73.098 1.93667 72.8273 1.358 72.286C0.788667 71.7447 0.504 70.9887 0.504 70.018H2.464C2.47333 70.438 2.57133 70.7647 2.758 70.998C2.954 71.2313 3.234 71.348 3.598 71.348C3.95267 71.348 4.22333 71.236 4.41 71.012C4.59667 70.788 4.69 70.48 4.69 70.088V63.228H6.664ZM8.44637 69.094C8.44637 68.31 8.60037 67.6147 8.90837 67.008C9.22571 66.4013 9.65038 65.9347 10.1824 65.608C10.7237 65.2813 11.3257 65.118 11.9884 65.118C12.567 65.118 13.071 65.2347 13.5004 65.468C13.939 65.7013 14.289 65.9953 14.5504 66.35V65.244H16.5244V73H14.5504V71.866C14.2984 72.23 13.9484 72.5333 13.5004 72.776C13.0617 73.0093 12.553 73.126 11.9744 73.126C11.321 73.126 10.7237 72.958 10.1824 72.622C9.65038 72.286 9.22571 71.8147 8.90837 71.208C8.60037 70.592 8.44637 69.8873 8.44637 69.094ZM14.5504 69.122C14.5504 68.646 14.457 68.24 14.2704 67.904C14.0837 67.5587 13.8317 67.2973 13.5144 67.12C13.197 66.9333 12.8564 66.84 12.4924 66.84C12.1284 66.84 11.7924 66.9287 11.4844 67.106C11.1764 67.2833 10.9244 67.5447 10.7284 67.89C10.5417 68.226 10.4484 68.6273 10.4484 69.094C10.4484 69.5607 10.5417 69.9713 10.7284 70.326C10.9244 70.6713 11.1764 70.9373 11.4844 71.124C11.8017 71.3107 12.1377 71.404 12.4924 71.404C12.8564 71.404 13.197 71.3153 13.5144 71.138C13.8317 70.9513 14.0837 70.69 14.2704 70.354C14.457 70.0087 14.5504 69.598 14.5504 69.122ZM21.6727 71.194L23.6327 65.244H25.7187L22.8487 73H20.4687L17.6127 65.244H19.7127L21.6727 71.194ZM26.3155 69.094C26.3155 68.31 26.4695 67.6147 26.7775 67.008C27.0948 66.4013 27.5195 65.9347 28.0515 65.608C28.5928 65.2813 29.1948 65.118 29.8575 65.118C30.4362 65.118 30.9402 65.2347 31.3695 65.468C31.8082 65.7013 32.1582 65.9953 32.4195 66.35V65.244H34.3935V73H32.4195V71.866C32.1675 72.23 31.8175 72.5333 31.3695 72.776C30.9308 73.0093 30.4222 73.126 29.8435 73.126C29.1902 73.126 28.5928 72.958 28.0515 72.622C27.5195 72.286 27.0948 71.8147 26.7775 71.208C26.4695 70.592 26.3155 69.8873 26.3155 69.094ZM32.4195 69.122C32.4195 68.646 32.3262 68.24 32.1395 67.904C31.9528 67.5587 31.7008 67.2973 31.3835 67.12C31.0662 66.9333 30.7255 66.84 30.3615 66.84C29.9975 66.84 29.6615 66.9287 29.3535 67.106C29.0455 67.2833 28.7935 67.5447 28.5975 67.89C28.4108 68.226 28.3175 68.6273 28.3175 69.094C28.3175 69.5607 28.4108 69.9713 28.5975 70.326C28.7935 70.6713 29.0455 70.9373 29.3535 71.124C29.6708 71.3107 30.0068 71.404 30.3615 71.404C30.7255 71.404 31.0662 71.3153 31.3835 71.138C31.7008 70.9513 31.9528 70.69 32.1395 70.354C32.3262 70.0087 32.4195 69.598 32.4195 69.122ZM39.6818 73.098C39.0005 73.098 38.3845 72.9813 37.8338 72.748C37.2925 72.5147 36.8631 72.1787 36.5458 71.74C36.2285 71.3013 36.0651 70.7833 36.0558 70.186H38.1558C38.1838 70.5873 38.3238 70.9047 38.5758 71.138C38.8371 71.3713 39.1918 71.488 39.6398 71.488C40.0971 71.488 40.4565 71.3807 40.7178 71.166C40.9791 70.942 41.1098 70.6527 41.1098 70.298C41.1098 70.0087 41.0211 69.7707 40.8438 69.584C40.6665 69.3973 40.4425 69.2527 40.1718 69.15C39.9105 69.038 39.5465 68.9167 39.0798 68.786C38.4451 68.5993 37.9271 68.4173 37.5258 68.24C37.1338 68.0533 36.7931 67.778 36.5038 67.414C36.2238 67.0407 36.0838 66.546 36.0838 65.93C36.0838 65.3513 36.2285 64.8473 36.5178 64.418C36.8071 63.9887 37.2131 63.662 37.7358 63.438C38.2585 63.2047 38.8558 63.088 39.5278 63.088C40.5358 63.088 41.3525 63.3353 41.9778 63.83C42.6125 64.3153 42.9625 64.9967 43.0278 65.874H40.8718C40.8531 65.538 40.7085 65.2627 40.4378 65.048C40.1765 64.824 39.8265 64.712 39.3878 64.712C39.0051 64.712 38.6971 64.81 38.4638 65.006C38.2398 65.202 38.1278 65.4867 38.1278 65.86C38.1278 66.1213 38.2118 66.3407 38.3798 66.518C38.5571 66.686 38.7718 66.826 39.0238 66.938C39.2851 67.0407 39.6491 67.162 40.1158 67.302C40.7505 67.4887 41.2685 67.6753 41.6698 67.862C42.0711 68.0487 42.4165 68.3287 42.7058 68.702C42.9951 69.0753 43.1398 69.5653 43.1398 70.172C43.1398 70.6947 43.0045 71.18 42.7338 71.628C42.4631 72.076 42.0665 72.4353 41.5438 72.706C41.0211 72.9673 40.4005 73.098 39.6818 73.098ZM44.335 69.122C44.335 68.3193 44.4984 67.6193 44.825 67.022C45.1517 66.4153 45.6044 65.9487 46.183 65.622C46.7617 65.286 47.4244 65.118 48.171 65.118C49.1324 65.118 49.9257 65.3607 50.551 65.846C51.1857 66.322 51.6104 66.994 51.825 67.862H49.711C49.599 67.526 49.4077 67.2647 49.137 67.078C48.8757 66.882 48.549 66.784 48.157 66.784C47.597 66.784 47.1537 66.9893 46.827 67.4C46.5004 67.8013 46.337 68.3753 46.337 69.122C46.337 69.8593 46.5004 70.4333 46.827 70.844C47.1537 71.2453 47.597 71.446 48.157 71.446C48.9504 71.446 49.4684 71.0913 49.711 70.382H51.825C51.6104 71.222 51.1857 71.8893 50.551 72.384C49.9164 72.8787 49.123 73.126 48.171 73.126C47.4244 73.126 46.7617 72.9627 46.183 72.636C45.6044 72.3 45.1517 71.8333 44.825 71.236C44.4984 70.6293 44.335 69.9247 44.335 69.122ZM55.2209 66.448C55.4729 66.0373 55.7996 65.7153 56.2009 65.482C56.6116 65.2487 57.0783 65.132 57.6009 65.132V67.19H57.0829C56.4669 67.19 56.0003 67.3347 55.6829 67.624C55.3749 67.9133 55.2209 68.4173 55.2209 69.136V73H53.2609V65.244H55.2209V66.448ZM59.9151 64.32C59.5697 64.32 59.2804 64.2127 59.0471 63.998C58.8231 63.774 58.7111 63.4987 58.7111 63.172C58.7111 62.8453 58.8231 62.5747 59.0471 62.36C59.2804 62.136 59.5697 62.024 59.9151 62.024C60.2604 62.024 60.5451 62.136 60.7691 62.36C61.0024 62.5747 61.1191 62.8453 61.1191 63.172C61.1191 63.4987 61.0024 63.774 60.7691 63.998C60.5451 64.2127 60.2604 64.32 59.9151 64.32ZM60.8811 65.244V73H58.9211V65.244H60.8811ZM64.7776 66.364C65.0296 66.0093 65.3749 65.7153 65.8136 65.482C66.2616 65.2393 66.7702 65.118 67.3396 65.118C68.0022 65.118 68.5996 65.2813 69.1316 65.608C69.6729 65.9347 70.0976 66.4013 70.4056 67.008C70.7229 67.6053 70.8816 68.3007 70.8816 69.094C70.8816 69.8873 70.7229 70.592 70.4056 71.208C70.0976 71.8147 69.6729 72.286 69.1316 72.622C68.5996 72.958 68.0022 73.126 67.3396 73.126C66.7702 73.126 66.2662 73.0093 65.8276 72.776C65.3982 72.5427 65.0482 72.2487 64.7776 71.894V76.696H62.8176V65.244H64.7776V66.364ZM68.8796 69.094C68.8796 68.6273 68.7816 68.226 68.5856 67.89C68.3989 67.5447 68.1469 67.2833 67.8296 67.106C67.5216 66.9287 67.1856 66.84 66.8216 66.84C66.4669 66.84 66.1309 66.9333 65.8136 67.12C65.5056 67.2973 65.2536 67.5587 65.0576 67.904C64.8709 68.2493 64.7776 68.6553 64.7776 69.122C64.7776 69.5887 64.8709 69.9947 65.0576 70.34C65.2536 70.6853 65.5056 70.9513 65.8136 71.138C66.1309 71.3153 66.4669 71.404 66.8216 71.404C67.1856 71.404 67.5216 71.3107 67.8296 71.124C68.1469 70.9373 68.3989 70.6713 68.5856 70.326C68.7816 69.9807 68.8796 69.57 68.8796 69.094ZM74.5878 66.854V70.606C74.5878 70.8673 74.6485 71.0587 74.7698 71.18C74.9005 71.292 75.1152 71.348 75.4138 71.348H76.3238V73H75.0918C73.4398 73 72.6138 72.1973 72.6138 70.592V66.854H71.6898V65.244H72.6138V63.326H74.5878V65.244H76.3238V66.854H74.5878Z" fill="white"/>
</svg>
