<svg width="46" height="46" viewBox="0 0 46 46" fill="none" xmlns="http://www.w3.org/2000/svg">
<g id="linkedin">
<path id="Vector" d="M39.2342 3.83334H6.76586C6.40089 3.82827 6.03849 3.89514 5.69937 4.03015C5.36024 4.16515 5.05103 4.36563 4.78939 4.62015C4.52776 4.87467 4.31882 5.17823 4.17452 5.51351C4.03021 5.84878 3.95336 6.20919 3.94836 6.57417V39.4258C3.95336 39.7908 4.03021 40.1512 4.17452 40.4865C4.31882 40.8218 4.52776 41.1253 4.78939 41.3799C5.05103 41.6344 5.36024 41.8349 5.69937 41.9699C6.03849 42.1049 6.40089 42.1717 6.76586 42.1667H39.2342C39.5992 42.1717 39.9616 42.1049 40.3007 41.9699C40.6398 41.8349 40.949 41.6344 41.2107 41.3799C41.4723 41.1253 41.6812 40.8218 41.8256 40.4865C41.9699 40.1512 42.0467 39.7908 42.0517 39.4258V6.57417C42.0467 6.20919 41.9699 5.84878 41.8256 5.51351C41.6812 5.17823 41.4723 4.87467 41.2107 4.62015C40.949 4.36563 40.6398 4.16515 40.3007 4.03015C39.9616 3.89514 39.5992 3.82827 39.2342 3.83334ZM15.5059 35.9183H9.75587V18.6683H15.5059V35.9183ZM12.6309 16.2533C11.8379 16.2533 11.0773 15.9383 10.5166 15.3776C9.95588 14.8169 9.64086 14.0563 9.64086 13.2633C9.64086 12.4703 9.95588 11.7098 10.5166 11.1491C11.0773 10.5884 11.8379 10.2733 12.6309 10.2733C13.0519 10.2256 13.4784 10.2673 13.8822 10.3958C14.286 10.5243 14.6582 10.7366 14.9743 11.0188C15.2904 11.3011 15.5433 11.647 15.7165 12.0338C15.8896 12.4206 15.9791 12.8396 15.9791 13.2633C15.9791 13.6871 15.8896 14.1061 15.7165 14.4929C15.5433 14.8797 15.2904 15.2256 14.9743 15.5078C14.6582 15.7901 14.286 16.0024 13.8822 16.1309C13.4784 16.2594 13.0519 16.3011 12.6309 16.2533ZM36.2442 35.9183H30.4942V26.6608C30.4942 24.3417 29.67 22.8275 27.5809 22.8275C26.9343 22.8322 26.3047 23.035 25.777 23.4086C25.2492 23.7821 24.8486 24.3085 24.6292 24.9167C24.4792 25.3672 24.4142 25.8416 24.4375 26.3158V35.8992H18.6875C18.6875 35.8992 18.6875 20.2208 18.6875 18.6492H24.4375V21.0833C24.9599 20.177 25.7196 19.4302 26.6349 18.9236C27.5501 18.417 28.5863 18.1697 29.6317 18.2083C33.465 18.2083 36.2442 20.6808 36.2442 25.99V35.9183Z" fill="white"/>
</g>
</svg>
