<svg width="24" height="24" viewBox="0 0 24 24" fill="none" xmlns="http://www.w3.org/2000/svg">
<g id="Linked" clip-path="url(#clip0_542_178)">
<g id="Flat_copy_5">
<path id="Vector" d="M12 0.173912C5.46831 0.173912 0.17392 5.4683 0.17392 12C0.17392 18.531 5.46831 23.8261 12 23.8261C18.5317 23.8261 23.8261 18.531 23.8261 12C23.8261 5.4683 18.5317 0.173912 12 0.173912Z" fill="#FD9A3E"/>
<path id="Vector_2" d="M18.1304 17.131V12.595C18.1304 10.1647 16.8332 9.03387 15.1029 9.03387C13.7067 9.03387 13.0814 9.80183 12.7332 10.3407V9.21939H10.1034C10.1381 9.96222 10.1034 17.131 10.1034 17.131H12.7332V12.7125C12.7332 12.4767 12.7502 12.2402 12.8197 12.0717C13.0097 11.5994 13.4421 11.1101 14.1686 11.1101C15.1206 11.1101 15.5013 11.8352 15.5013 12.8988V17.1318L18.1304 17.131ZM7.3324 8.13952C8.24893 8.13952 8.82027 7.53122 8.82027 6.77213C8.80327 5.99604 8.24893 5.40548 7.3494 5.40548C6.44988 5.40548 5.86227 5.99604 5.86227 6.77213C5.86227 7.53196 6.43288 8.13952 7.31614 8.13952H7.3324ZM8.64732 17.131V9.21939H6.01823V17.131H8.64732Z" fill="white"/>
</g>
</g>
<defs>
<clipPath id="clip0_542_178">
<rect width="23.6522" height="23.6522" fill="white" transform="translate(0.17392 0.173912)"/>
</clipPath>
</defs>
</svg>
