<svg width="38" height="23" viewBox="0 0 38 23" fill="none" xmlns="http://www.w3.org/2000/svg">
<path id="Vector" d="M8.9664 5.99872H16.1335V6.57024H9.62339V10.8717H15.7453V11.4432H9.62339V16.1657H16.2082V16.7373H8.9664V5.99872ZM16.7756 5.99872H17.5371L20.9116 10.7213L24.3608 5.99872L29.0523 0L21.3447 11.2176L25.3165 16.7373H24.5251L20.9116 11.7139L17.2833 16.7373H16.5068L20.5085 11.2176L16.7756 5.99872ZM25.6002 6.57024V5.99872H33.7677V6.57024H30.005V16.7373H29.348V6.57024H25.6002ZM0 5.99872H0.821236L12.1456 23L7.46578 16.7373L0.686852 6.81088L0.656989 16.7373H0L0 5.99872ZM33.7015 15.9933C33.5673 15.9933 33.4666 15.8889 33.4666 15.7541C33.4666 15.6192 33.5673 15.5149 33.7015 15.5149C33.8374 15.5149 33.9364 15.6192 33.9364 15.7541C33.9364 15.8889 33.8374 15.9933 33.7015 15.9933ZM34.3471 15.364H34.6986C34.7034 15.555 34.8425 15.6835 35.047 15.6835C35.2755 15.6835 35.4049 15.5454 35.4049 15.287V13.6496H35.7629V15.2886C35.7629 15.7541 35.4944 16.0222 35.0502 16.0222C34.6331 16.0222 34.3471 15.7621 34.3471 15.364ZM36.2311 15.3431H36.5858C36.6162 15.5631 36.8303 15.7027 37.1387 15.7027C37.4263 15.7027 37.6373 15.5534 37.6373 15.348C37.6373 15.1714 37.503 15.0654 37.1978 14.9932L36.9006 14.921C36.4835 14.823 36.2934 14.6208 36.2934 14.2805C36.2934 13.8679 36.629 13.5934 37.1323 13.5934C37.6005 13.5934 37.9425 13.8679 37.9632 14.258H37.6149C37.5813 14.0445 37.396 13.9112 37.1275 13.9112C36.8447 13.9112 36.6561 14.0477 36.6561 14.2564C36.6561 14.4217 36.7776 14.5164 37.078 14.5871L37.3321 14.6497C37.8051 14.7604 38 14.9531 38 15.3014C38 15.7445 37.658 16.0222 37.1115 16.0222C36.6002 16.0222 36.2566 15.7573 36.2311 15.3431Z" fill="#FD9A3E"/>
</svg>
