<svg width="58" height="78" viewBox="0 0 58 78" fill="none" xmlns="http://www.w3.org/2000/svg">
<path d="M39.2268 6.07501C38.8556 6.05476 38.5377 6.34448 38.5242 6.71573C38.5039 7.08698 38.7949 7.40476 39.1662 7.42501H39.1992C39.5569 7.42501 39.8541 7.14087 39.8676 6.77637C39.8878 6.40512 39.5981 6.08851 39.2268 6.07501ZM20.6446 6.14224C20.2733 6.10174 19.9349 6.36557 19.8944 6.73682C19.8472 7.10807 20.1177 7.4384 20.489 7.48565H20.5628C20.9003 7.48565 21.1907 7.23664 21.2312 6.89239C21.2785 6.52114 21.0091 6.18274 20.6446 6.14224ZM36.5835 6.57598C36.4954 6.57303 36.405 6.58837 36.3172 6.62212C35.973 6.75712 35.7973 7.14783 35.9323 7.49883C36.0403 7.76208 36.2977 7.93126 36.5677 7.93126C36.6487 7.93126 36.7293 7.91755 36.8103 7.8838C37.1545 7.74879 37.3302 7.35793 37.1952 7.01368C37.094 6.75043 36.848 6.58484 36.5835 6.57598ZM17.8589 6.65377C17.772 6.6679 17.6864 6.69938 17.6071 6.75001C17.2898 6.94576 17.1949 7.36484 17.3974 7.68209C17.5189 7.88459 17.7416 7.99849 17.9643 7.99849C18.0858 7.99849 18.2136 7.96464 18.3216 7.89039C18.6389 7.69464 18.7336 7.27687 18.5378 6.95962C18.391 6.72675 18.1196 6.61137 17.8589 6.65377ZM23.1587 6.93458C22.8967 6.9235 22.6421 7.06884 22.5206 7.3169C22.3586 7.6544 22.5074 8.05929 22.8449 8.2213C22.9327 8.2618 23.0339 8.28194 23.1284 8.28194C23.3849 8.28194 23.628 8.13998 23.7427 7.89698C23.898 7.55948 23.7559 7.16118 23.4184 6.99918C23.334 6.95868 23.246 6.93827 23.1587 6.93458ZM41.6197 7.11651C41.4475 7.11482 41.2754 7.17868 41.1437 7.31031C40.8737 7.57356 40.8739 7.99891 41.1371 8.26216C41.2654 8.39716 41.4402 8.46387 41.6157 8.46387C41.7845 8.46387 41.9608 8.40376 42.089 8.26876C42.3522 8.01226 42.3588 7.58015 42.0956 7.3169C41.964 7.18527 41.7918 7.1182 41.6197 7.11651ZM34.0589 7.8337C33.9719 7.84846 33.8864 7.88063 33.8071 7.93126C33.4966 8.13376 33.4015 8.55268 33.604 8.86993C33.7323 9.06568 33.9548 9.17315 34.1775 9.17315C34.299 9.17315 34.428 9.13929 34.5427 9.06505C34.8532 8.8693 34.9402 8.45153 34.7444 8.13428C34.5925 7.90141 34.3199 7.7894 34.0589 7.8337ZM25.4605 8.30699C25.3148 8.30265 25.1715 8.34563 25.0522 8.42949C24.9329 8.51335 24.844 8.63358 24.7987 8.7722C24.7535 8.91082 24.7543 9.06037 24.8011 9.19848C24.8479 9.33658 24.9382 9.45582 25.0584 9.53834H25.0597L25.0611 9.53965C26.1707 10.3204 27.3347 11.3307 28.5125 12.4994C27.1546 13.9462 25.8035 15.6049 24.4929 17.4353C21.9041 17.6638 19.4934 18.0734 17.3144 18.6218C16.902 17.0007 16.6243 15.4776 16.526 14.1262C16.516 13.9557 16.4417 13.7954 16.3182 13.6775C16.1947 13.5595 16.031 13.4928 15.8602 13.4908C15.7659 13.4895 15.6724 13.508 15.5857 13.5451C15.499 13.5822 15.4211 13.637 15.3568 13.7061C15.2926 13.7752 15.2436 13.8569 15.2129 13.9461C15.1822 14.0352 15.1705 14.1298 15.1786 14.2238C15.2843 15.6751 15.5748 17.2788 16.0039 18.9699C14.6724 19.359 13.4428 19.8024 12.3468 20.2988C12.2867 20.3248 12.2308 20.3595 12.1807 20.4016C12.1397 20.4123 12.0977 20.4129 12.0581 20.4319C11.7206 20.5872 11.5785 20.9922 11.7338 21.3297C11.8485 21.5727 12.0916 21.7147 12.3481 21.7147C12.4426 21.7147 12.5438 21.6946 12.6316 21.6541C12.6687 21.6362 12.6941 21.606 12.7265 21.5829C12.7876 21.573 12.847 21.5548 12.9032 21.5288C13.9236 21.0666 15.0829 20.6491 16.3493 20.279C16.9745 22.4126 17.8323 24.679 18.9122 27.004C17.9615 29.0521 17.1733 31.058 16.5735 32.9643C15.2219 32.5792 13.9828 32.1408 12.9045 31.6525H12.9032C12.9027 31.6521 12.9023 31.6516 12.9018 31.6512C12.9005 31.6506 12.8992 31.6505 12.8979 31.6499C12.8178 31.6132 12.7314 31.5926 12.6434 31.5892C12.5096 31.5844 12.3774 31.6195 12.2636 31.69C12.1498 31.7605 12.0595 31.8633 12.0042 31.9852C11.949 32.1072 11.9312 32.2429 11.9533 32.3749C11.9753 32.507 12.0361 32.6295 12.128 32.727V32.7283C12.1869 32.7906 12.2571 32.8412 12.3349 32.8773C12.34 32.8797 12.343 32.8842 12.3481 32.8865C12.3596 32.8918 12.3721 32.8926 12.3837 32.897C13.5214 33.4099 14.8048 33.8653 16.1938 34.2628C16.0004 34.9589 15.824 35.6451 15.6823 36.3076C15.6613 36.3951 15.6581 36.4859 15.6728 36.5747C15.6875 36.6634 15.7197 36.7484 15.7677 36.8245C15.8156 36.9006 15.8783 36.9664 15.9521 37.0179C16.0258 37.0694 16.1091 37.1057 16.1971 37.1246C16.285 37.1435 16.3759 37.1446 16.4643 37.1279C16.5527 37.1112 16.6368 37.077 16.7118 37.0273C16.7868 36.9776 16.8511 36.9134 16.9009 36.8385C16.9507 36.7635 16.9851 36.6794 17.0019 36.5911C17.1386 35.9523 17.3107 35.287 17.499 34.6109C19.4481 35.0911 21.5892 35.4501 23.8653 35.6788C25.3694 37.8679 26.9408 39.8198 28.5178 41.4993C27.8388 42.1739 27.1641 42.8059 26.502 43.3556C26.4327 43.4118 26.3752 43.4813 26.333 43.5599C26.2907 43.6385 26.2644 43.7247 26.2556 43.8136C26.2469 43.9024 26.2558 43.9921 26.282 44.0775C26.3081 44.1628 26.351 44.2422 26.408 44.3109C26.465 44.3796 26.5351 44.4363 26.6141 44.4777C26.6932 44.5191 26.7797 44.5445 26.8687 44.5522C26.9576 44.56 27.0472 44.5501 27.1323 44.523C27.2173 44.4959 27.2962 44.4522 27.3642 44.3944C28.0556 43.8205 28.7555 43.1673 29.4565 42.4723C30.4503 43.4593 31.4402 44.3368 32.4109 45.0773C32.4157 45.0812 32.4179 45.0868 32.4228 45.0905V45.0866C32.493 45.1428 32.5738 45.1843 32.6603 45.2089C32.7469 45.2334 32.8375 45.2404 32.9267 45.2294C33.016 45.2184 33.1022 45.1897 33.1802 45.145C33.2583 45.1002 33.3266 45.0403 33.3811 44.9688C33.4357 44.8973 33.4754 44.8156 33.4979 44.7285C33.5205 44.6415 33.5254 44.5507 33.5124 44.4617C33.4994 44.3727 33.4687 44.2872 33.4222 44.2102C33.3757 44.1333 33.3142 44.0663 33.2415 44.0134C32.3179 43.3097 31.3641 42.4628 30.4004 41.5033C31.9779 39.8254 33.5512 37.8752 35.0569 35.6867C37.3432 35.4601 39.4886 35.096 41.447 34.6162C41.7687 35.7684 42.0193 36.8725 42.1905 37.9094C42.2195 38.0862 42.3176 38.2442 42.4631 38.3486C42.5351 38.4003 42.6166 38.4374 42.703 38.4576C42.7894 38.4778 42.8788 38.4808 42.9664 38.4664C43.0539 38.4521 43.1377 38.4206 43.2131 38.3738C43.2884 38.3271 43.3538 38.2659 43.4056 38.1939C43.4573 38.1218 43.4943 38.0403 43.5145 37.9539C43.5347 37.8676 43.5377 37.7781 43.5234 37.6906C43.3445 36.6072 43.0871 35.4634 42.7574 34.2773C43.9032 33.9514 44.9799 33.588 45.9584 33.1831C46.0415 33.15 46.1172 33.1008 46.1811 33.0382C46.245 32.9756 46.2958 32.9009 46.3306 32.8185C46.3654 32.7361 46.3835 32.6476 46.3838 32.5582C46.3841 32.4687 46.3666 32.3801 46.3324 32.2975C46.2981 32.2148 46.2478 32.1398 46.1843 32.0768C46.1209 32.0138 46.0455 31.964 45.9626 31.9304C45.8797 31.8967 45.791 31.8799 45.7015 31.8809C45.6121 31.8818 45.5237 31.9005 45.4416 31.9359C44.5106 32.3213 43.4748 32.67 42.3645 32.984C41.7616 31.0664 40.9774 29.0543 40.0192 26.9934C41.1014 24.6655 41.9562 22.4022 42.5834 20.2658C43.3549 20.49 44.1007 20.7256 44.785 20.9857C44.8677 21.0177 44.9559 21.0331 45.0445 21.0311C45.1331 21.029 45.2205 21.0095 45.3016 20.9737C45.3827 20.9379 45.456 20.8865 45.5172 20.8224C45.5784 20.7583 45.6264 20.6827 45.6585 20.6C45.6905 20.5174 45.7059 20.4292 45.7039 20.3406C45.7018 20.2519 45.6823 20.1646 45.6465 20.0835C45.6107 20.0024 45.5593 19.9291 45.4952 19.8679C45.4311 19.8066 45.3555 19.7586 45.2728 19.7266C45.271 19.7259 45.2695 19.7247 45.2676 19.724C45.2667 19.7237 45.2658 19.7243 45.2649 19.724C44.5395 19.4483 43.7551 19.1999 42.9459 18.9646C43.2432 17.7998 43.4753 16.6768 43.6209 15.6199V15.6186V15.6173C43.6354 15.5224 43.6294 15.4255 43.6035 15.3331C43.5775 15.2407 43.5321 15.1549 43.4704 15.0814C43.4086 15.0079 43.3319 14.9484 43.2453 14.9069C43.1587 14.8654 43.0643 14.8429 42.9683 14.8408C42.8023 14.8374 42.6408 14.8954 42.5148 15.0036C42.3888 15.1119 42.3072 15.2628 42.2854 15.4274C42.2853 15.4284 42.2842 15.4291 42.2841 15.4301V15.4314C42.2841 15.4318 42.2841 15.4323 42.2841 15.4327C42.1473 16.4265 41.9274 17.4945 41.6434 18.6073C39.4595 18.0606 37.0317 17.6616 34.4386 17.4353C33.1239 15.6016 31.7689 13.9335 30.407 12.4862C31.3829 11.5149 32.348 10.6581 33.2824 9.94966C33.3963 9.86553 33.4809 9.74768 33.5242 9.61279C33.5675 9.4779 33.5673 9.33282 33.5235 9.19808C33.4798 9.06334 33.3947 8.94578 33.2805 8.86204C33.1662 8.77831 33.0285 8.73264 32.8869 8.7315C32.7351 8.73048 32.5874 8.78064 32.4676 8.87388C31.4783 9.62401 30.4676 10.5192 29.4538 11.5264C28.2337 10.3189 27.0189 9.26512 25.8389 8.43487C25.7286 8.35505 25.5967 8.31048 25.4605 8.30699ZM16.3243 8.746C16.0626 8.75581 15.8178 8.91649 15.7165 9.17974C15.5815 9.52399 15.7571 9.91618 16.1081 10.0512C16.1891 10.0849 16.2698 10.0986 16.3441 10.0986C16.6208 10.0986 16.877 9.92962 16.9782 9.65962C17.1132 9.31537 16.9377 8.92319 16.5867 8.78819C16.5006 8.75613 16.4115 8.74273 16.3243 8.746ZM42.9486 9.48956C42.8626 9.47637 42.7717 9.48043 42.6823 9.50406C42.3178 9.59856 42.1028 9.96237 42.1905 10.3201C42.2715 10.6306 42.5474 10.8343 42.8444 10.8343C42.8984 10.8343 42.9592 10.8267 43.0132 10.8132C43.3709 10.7187 43.5941 10.355 43.4996 9.99053C43.4288 9.72222 43.2064 9.52911 42.9486 9.48956ZM15.8721 11.3867C15.5009 11.3664 15.1765 11.6441 15.1562 12.0221C15.1292 12.3934 15.4124 12.7098 15.7904 12.7301C15.8039 12.7368 15.8177 12.7367 15.8312 12.7367C16.1822 12.7367 16.4792 12.4603 16.5062 12.1025C16.5265 11.7313 16.2434 11.4069 15.8721 11.3867ZM43.1424 12.1566C42.7711 12.1566 42.474 12.4602 42.474 12.8382C42.474 13.2094 42.7777 13.5066 43.149 13.5066C43.5202 13.5066 43.824 13.2028 43.824 12.8316C43.824 12.4603 43.5204 12.1566 43.1424 12.1566ZM29.4618 13.4631C30.5351 14.6083 31.6109 15.904 32.6693 17.3127C31.6309 17.2556 30.5782 17.2165 29.5 17.2165C28.3935 17.2165 27.3145 17.2581 26.2502 17.318C27.3097 15.9037 28.3866 14.6132 29.4618 13.4631ZM29.5 18.5665C30.9403 18.5665 32.3457 18.6238 33.7082 18.7273C34.6467 20.0661 35.5616 21.4966 36.4332 23.0067C37.203 24.3404 37.9035 25.6729 38.5321 26.9868C37.8986 28.3125 37.1972 29.6555 36.4201 31.0012C36.4169 31.0069 36.4138 31.0126 36.4108 31.0184C36.4072 31.0245 36.4037 31.0306 36.4003 31.0368C35.7203 32.2131 35.0122 33.3337 34.2896 34.4079C32.7472 34.5424 31.1466 34.6162 29.5 34.6162C27.8307 34.6162 26.2053 34.5423 24.6431 34.4039C23.9183 33.3259 23.206 32.2069 22.5245 31.0263C21.7426 29.6715 21.0471 28.3213 20.4112 26.9868C21.0444 25.6624 21.7426 24.3211 22.5193 22.9764C22.5206 22.9742 22.5219 22.972 22.5232 22.9698C22.5255 22.9663 22.5277 22.9628 22.5298 22.9592C23.3896 21.4708 24.2922 20.0627 25.2166 18.7405C26.6044 18.6326 28.0313 18.5665 29.5 18.5665ZM35.4445 18.8934C37.5361 19.123 39.4978 19.4672 41.2782 19.9099C40.7636 21.6555 40.0862 23.5016 39.2493 25.4074C38.7363 24.3872 38.1965 23.3619 37.6026 22.333C36.9085 21.1305 36.1822 19.9934 35.4445 18.8934ZM23.4738 18.9079C22.7509 19.988 22.0411 21.1058 21.3604 22.2842C21.3573 22.2895 21.3541 22.2949 21.3512 22.3001C21.3505 22.3013 21.3506 22.3027 21.3499 22.304C20.7518 23.3397 20.2035 24.3724 19.6874 25.3995C18.8591 23.5068 18.1729 21.6632 17.6624 19.9296C19.4351 19.4857 21.3897 19.1408 23.4738 18.9079ZM47.5483 20.7866C47.2848 20.7622 47.0195 20.8932 46.8878 21.1412C46.7123 21.472 46.8405 21.8767 47.1713 22.0522C47.2725 22.1062 47.381 22.1326 47.489 22.1326C47.7253 22.1326 47.9608 22.0048 48.0823 21.7753C48.2578 21.4513 48.1294 21.0399 47.8054 20.8644C47.7227 20.8205 47.6362 20.7947 47.5483 20.7866ZM10.1227 21.716C9.9523 21.6865 9.7691 21.7214 9.61385 21.8294C9.3101 22.0454 9.23701 22.4643 9.45301 22.7681C9.58801 22.9571 9.79615 23.0581 10.0054 23.0581C10.1404 23.0581 10.2756 23.018 10.3904 22.9302L10.397 22.9368C10.7007 22.7208 10.7751 22.2953 10.5591 21.9916C10.4511 21.8397 10.2932 21.7456 10.1227 21.716ZM49.6775 22.2763C49.5054 22.2898 49.3389 22.3692 49.2174 22.511C48.9744 22.7945 49.0143 23.2198 49.2978 23.4628C49.426 23.5708 49.5817 23.625 49.7302 23.625C49.926 23.625 50.1146 23.5444 50.2496 23.3824C50.4859 23.0989 50.4514 22.6734 50.1679 22.4372C50.0262 22.3157 49.8496 22.2628 49.6775 22.2763ZM29.5 22.9526C27.263 22.9526 25.45 24.7657 25.45 27.0026C25.45 29.2396 27.263 31.0526 29.5 31.0526C31.7369 31.0526 33.55 29.2396 33.55 27.0026C33.55 24.7657 31.7369 22.9526 29.5 22.9526ZM7.94745 23.563C7.77616 23.59 7.61643 23.6828 7.50843 23.8346C7.29243 24.1384 7.36025 24.5639 7.664 24.7799C7.77875 24.8609 7.92055 24.9078 8.05555 24.9078C8.2648 24.9078 8.4731 24.8066 8.60135 24.6243C8.8241 24.3206 8.75069 23.9016 8.4537 23.6856C8.30182 23.5743 8.11873 23.536 7.94745 23.563ZM51.394 24.3567C51.3066 24.3603 51.2186 24.3808 51.1343 24.4213C50.7968 24.5765 50.6481 24.975 50.8034 25.3125C50.9181 25.5623 51.1612 25.7041 51.4177 25.7041C51.5122 25.7041 51.6067 25.6839 51.7012 25.6434C52.0387 25.4882 52.1873 25.0831 52.0321 24.7456C51.9106 24.4925 51.656 24.3459 51.394 24.3567ZM7.19862 26.0679C6.82871 26.0881 6.53863 26.3971 6.55658 26.7732C6.57143 27.1365 6.86797 27.4179 7.23158 27.4179H7.25926C7.63051 27.4044 7.92023 27.0878 7.89998 26.7166C7.88648 26.3386 7.56987 26.0544 7.19862 26.0679ZM51.5443 26.9842C51.2829 27.0092 51.0465 27.189 50.9655 27.4522V27.4588C50.8575 27.8098 51.0534 28.1878 51.4111 28.3025C51.4719 28.3228 51.5455 28.3302 51.6062 28.3302C51.8965 28.3302 52.1604 28.1472 52.2549 27.8569C52.3629 27.5059 52.167 27.1279 51.8093 27.0132C51.7215 26.9845 51.6314 26.9759 51.5443 26.9842ZM8.31527 28.524C8.14314 28.5055 7.96469 28.553 7.81956 28.6677C7.52931 28.904 7.4818 29.3293 7.71805 29.6196C7.8463 29.7816 8.04158 29.8688 8.24408 29.8688C8.39258 29.8688 8.54181 29.821 8.66331 29.7198C8.95356 29.4903 8.9996 29.0661 8.7701 28.7758C8.65198 28.6273 8.48739 28.5426 8.31527 28.524ZM19.6822 28.5689C20.2033 29.6077 20.7502 30.6517 21.3552 31.7C21.3552 31.7004 21.3552 31.7008 21.3552 31.7013C21.8542 32.5658 22.3695 33.3976 22.8924 34.2101C21.1107 33.9899 19.4279 33.6883 17.8813 33.311C18.3624 31.7911 18.9652 30.2002 19.6822 28.5689ZM39.2519 28.5689C39.9713 30.205 40.5701 31.7976 41.0528 33.3215C39.4963 33.6986 37.8156 34.0066 36.0232 34.2246C36.548 33.4106 37.0662 32.5795 37.567 31.7131C37.5838 31.6863 37.5951 31.6662 37.6079 31.6406C38.2008 30.6124 38.7397 29.5884 39.2519 28.5689ZM50.1429 29.2043C49.9707 29.2001 49.7967 29.2606 49.6617 29.3889C49.3917 29.6454 49.3855 30.0786 49.6353 30.3486C49.7703 30.4836 49.9461 30.5503 50.1284 30.5503C50.2971 30.5503 50.4655 30.4899 50.5937 30.3684C50.8637 30.1119 50.87 29.68 50.6135 29.41C50.4853 29.2783 50.315 29.2085 50.1429 29.2043ZM10.1267 30.3117C9.9571 30.3446 9.80021 30.4426 9.69559 30.5978C9.48634 30.9083 9.57361 31.3272 9.88411 31.5365C9.99886 31.6107 10.1276 31.6512 10.2559 31.6512C10.4786 31.6512 10.6879 31.5424 10.8162 31.3466C11.0254 31.0361 10.9448 30.6184 10.6343 30.4159C10.479 30.3112 10.2963 30.2788 10.1267 30.3117ZM47.8661 30.7956C47.7784 30.8063 47.6913 30.834 47.6103 30.8813C47.293 31.0635 47.1787 31.4816 47.3677 31.7988C47.4892 32.0216 47.7183 32.1363 47.9478 32.1363C48.0625 32.1363 48.184 32.1101 48.2853 32.0493C48.6093 31.8603 48.7235 31.4477 48.5345 31.1304C48.3978 30.8874 48.129 30.7633 47.8661 30.7956ZM25.6293 35.8238C26.8907 35.9089 28.1768 35.9662 29.5 35.9662C30.7964 35.9662 32.0581 35.9123 33.2955 35.8304C32.0387 37.5774 30.7485 39.1534 29.4618 40.5277C28.1759 39.1522 26.885 37.5709 25.6293 35.8238ZM15.9802 38.4407C15.609 38.4002 15.2706 38.6707 15.2301 39.0419C15.1963 39.4132 15.46 39.7436 15.8312 39.7841C15.8582 39.7841 15.8781 39.7907 15.9051 39.7907C16.2426 39.7907 16.5397 39.5353 16.5735 39.1843C16.614 38.813 16.3515 38.4812 15.9802 38.4407ZM43.0804 39.44C42.7092 39.4603 42.426 39.7781 42.4463 40.1493C42.4665 40.5071 42.7635 40.7835 43.1213 40.7835H43.1621C43.5334 40.7632 43.8165 40.4456 43.7963 40.0676C43.776 39.6963 43.4517 39.413 43.0804 39.44ZM15.7772 41.1341C15.3992 41.1544 15.1162 41.4722 15.1365 41.8434C15.15 42.2012 15.4537 42.4841 15.8115 42.4841H15.8444C16.2157 42.4639 16.5001 42.1474 16.4799 41.7762C16.4664 41.4049 16.1484 41.1139 15.7772 41.1341ZM43.1424 42.1335C42.7711 42.0862 42.4263 42.349 42.379 42.7135C42.3318 43.0848 42.5879 43.4229 42.9591 43.4769C42.9861 43.4769 43.0204 43.4835 43.0474 43.4835C43.3782 43.4835 43.6754 43.2343 43.7159 42.8968C43.7699 42.5255 43.5069 42.1875 43.1424 42.1335ZM16.3256 43.7814C16.2383 43.7768 16.1484 43.7889 16.0606 43.821C15.7096 43.9425 15.5278 44.3335 15.6493 44.6845C15.7506 44.9612 16.0067 45.1301 16.2834 45.1301C16.3577 45.1301 16.4386 45.1175 16.5128 45.0905C16.8638 44.969 17.0458 44.5765 16.9176 44.2323C16.8264 43.964 16.5876 43.7953 16.3256 43.7814ZM25.4381 44.4419C25.2677 44.4115 25.0858 44.4454 24.9305 44.55C24.6268 44.766 24.5525 45.1849 24.7618 45.4887C24.8968 45.6777 25.1063 45.7787 25.3155 45.7787C25.4505 45.7787 25.5856 45.745 25.7071 45.664C26.0108 45.448 26.0851 45.0293 25.8758 44.7188C25.7678 44.5669 25.6086 44.4723 25.4381 44.4419ZM42.3342 44.699C42.0729 44.6648 41.8049 44.7869 41.6632 45.0299C41.4809 45.3539 41.5897 45.7651 41.9137 45.9541C42.0217 46.0148 42.1364 46.0424 42.2512 46.0424C42.4874 46.0424 42.7096 45.9209 42.8378 45.7049C43.0201 45.3809 42.9127 44.9682 42.5887 44.786C42.5077 44.7387 42.4213 44.7104 42.3342 44.699ZM35.1518 45.3661C34.8908 45.3385 34.6253 45.4685 34.4887 45.7115C34.3132 46.0355 34.427 46.4468 34.751 46.6291C34.859 46.6831 34.9672 46.7095 35.0819 46.7095C35.3182 46.7095 35.5484 46.5881 35.6699 46.3654C35.8522 46.0414 35.737 45.6301 35.4062 45.4478C35.3252 45.4022 35.2388 45.3752 35.1518 45.3661ZM22.9636 45.7853C22.8757 45.7879 22.7869 45.8071 22.7025 45.846C22.365 46.0012 22.2164 46.4063 22.3716 46.7438C22.4864 46.9935 22.7295 47.1353 22.986 47.1353C23.0805 47.1353 23.1749 47.1152 23.2694 47.0747C23.6069 46.9194 23.7556 46.5144 23.6003 46.1769C23.4839 45.9237 23.2271 45.7774 22.9636 45.7853ZM17.7099 45.9501C17.5395 45.9822 17.3808 46.079 17.2762 46.2309C17.0669 46.5347 17.141 46.9603 17.4515 47.1696C17.5662 47.2506 17.7016 47.2909 17.8299 47.2909C18.0459 47.2909 18.2539 47.1887 18.3889 46.9929C18.5981 46.6892 18.5173 46.2716 18.2135 46.0556C18.0616 45.9509 17.8803 45.918 17.7099 45.9501ZM40.2908 46.3931C40.2032 46.3862 40.1126 46.3957 40.0231 46.426C39.6721 46.5408 39.476 46.9186 39.5907 47.2764C39.6852 47.5599 39.9492 47.7431 40.2327 47.7431C40.3003 47.7431 40.3749 47.729 40.4424 47.7088C40.8001 47.594 40.9882 47.2095 40.8735 46.8585C40.7874 46.5901 40.5534 46.4136 40.2908 46.3931ZM37.4655 46.3957C37.2051 46.4381 36.9842 46.631 36.9184 46.8993C36.8239 47.2638 37.0471 47.6275 37.4049 47.722V47.7154C37.4589 47.7356 37.5196 47.7431 37.5736 47.7431C37.8706 47.7431 38.1465 47.534 38.2275 47.2302C38.3153 46.8657 38.099 46.5008 37.7345 46.4063C37.6433 46.3843 37.5523 46.3816 37.4655 46.3957ZM20.3466 46.5407C19.9754 46.5745 19.6985 46.8985 19.7323 47.2698C19.766 47.6208 20.063 47.8841 20.4073 47.8841H20.4679C20.8392 47.8504 21.1162 47.5197 21.0757 47.1485C21.0487 46.7772 20.7179 46.507 20.3466 46.5407Z" fill="#FC9F32"/>
<path d="M6.506 71L4.35 67.192H3.426V71H1.466V61.228H5.134C5.89 61.228 6.534 61.3633 7.066 61.634C7.598 61.8953 7.99467 62.2547 8.256 62.712C8.52667 63.16 8.662 63.664 8.662 64.224C8.662 64.868 8.47533 65.4513 8.102 65.974C7.72867 66.4873 7.17333 66.842 6.436 67.038L8.774 71H6.506ZM3.426 65.722H5.064C5.596 65.722 5.99267 65.596 6.254 65.344C6.51533 65.0827 6.646 64.7233 6.646 64.266C6.646 63.818 6.51533 63.4727 6.254 63.23C5.99267 62.978 5.596 62.852 5.064 62.852H3.426V65.722ZM17.6448 66.954C17.6448 67.234 17.6261 67.486 17.5888 67.71H11.9188C11.9654 68.27 12.1614 68.7087 12.5068 69.026C12.8521 69.3433 13.2768 69.502 13.7808 69.502C14.5088 69.502 15.0268 69.1893 15.3348 68.564H17.4488C17.2248 69.3107 16.7954 69.9267 16.1608 70.412C15.5261 70.888 14.7468 71.126 13.8228 71.126C13.0761 71.126 12.4041 70.9627 11.8068 70.636C11.2188 70.3 10.7568 69.8287 10.4208 69.222C10.0941 68.6153 9.93075 67.9153 9.93075 67.122C9.93075 66.3193 10.0941 65.6147 10.4208 65.008C10.7474 64.4013 11.2048 63.9347 11.7928 63.608C12.3808 63.2813 13.0574 63.118 13.8228 63.118C14.5601 63.118 15.2181 63.2767 15.7968 63.594C16.3848 63.9113 16.8374 64.364 17.1548 64.952C17.4814 65.5307 17.6448 66.198 17.6448 66.954ZM15.6148 66.394C15.6054 65.89 15.4234 65.4887 15.0688 65.19C14.7141 64.882 14.2801 64.728 13.7668 64.728C13.2814 64.728 12.8708 64.8773 12.5348 65.176C12.2081 65.4653 12.0074 65.8713 11.9328 66.394H15.6148ZM18.5714 67.094C18.5714 66.31 18.7254 65.6147 19.0334 65.008C19.3507 64.4013 19.7754 63.9347 20.3074 63.608C20.8487 63.2813 21.4507 63.118 22.1134 63.118C22.692 63.118 23.196 63.2347 23.6254 63.468C24.064 63.7013 24.414 63.9953 24.6754 64.35V63.244H26.6494V71H24.6754V69.866C24.4234 70.23 24.0734 70.5333 23.6254 70.776C23.1867 71.0093 22.678 71.126 22.0994 71.126C21.446 71.126 20.8487 70.958 20.3074 70.622C19.7754 70.286 19.3507 69.8147 19.0334 69.208C18.7254 68.592 18.5714 67.8873 18.5714 67.094ZM24.6754 67.122C24.6754 66.646 24.582 66.24 24.3954 65.904C24.2087 65.5587 23.9567 65.2973 23.6394 65.12C23.322 64.9333 22.9814 64.84 22.6174 64.84C22.2534 64.84 21.9174 64.9287 21.6094 65.106C21.3014 65.2833 21.0494 65.5447 20.8534 65.89C20.6667 66.226 20.5734 66.6273 20.5734 67.094C20.5734 67.5607 20.6667 67.9713 20.8534 68.326C21.0494 68.6713 21.3014 68.9373 21.6094 69.124C21.9267 69.3107 22.2627 69.404 22.6174 69.404C22.9814 69.404 23.322 69.3153 23.6394 69.138C23.9567 68.9513 24.2087 68.69 24.3954 68.354C24.582 68.0087 24.6754 67.598 24.6754 67.122ZM28.0597 67.122C28.0597 66.3193 28.223 65.6193 28.5497 65.022C28.8763 64.4153 29.329 63.9487 29.9077 63.622C30.4863 63.286 31.149 63.118 31.8957 63.118C32.857 63.118 33.6503 63.3607 34.2757 63.846C34.9103 64.322 35.335 64.994 35.5497 65.862H33.4357C33.3237 65.526 33.1323 65.2647 32.8617 65.078C32.6003 64.882 32.2737 64.784 31.8817 64.784C31.3217 64.784 30.8783 64.9893 30.5517 65.4C30.225 65.8013 30.0617 66.3753 30.0617 67.122C30.0617 67.8593 30.225 68.4333 30.5517 68.844C30.8783 69.2453 31.3217 69.446 31.8817 69.446C32.675 69.446 33.193 69.0913 33.4357 68.382H35.5497C35.335 69.222 34.9103 69.8893 34.2757 70.384C33.641 70.8787 32.8477 71.126 31.8957 71.126C31.149 71.126 30.4863 70.9627 29.9077 70.636C29.329 70.3 28.8763 69.8333 28.5497 69.236C28.223 68.6293 28.0597 67.9247 28.0597 67.122ZM39.2675 64.854V68.606C39.2675 68.8673 39.3282 69.0587 39.4495 69.18C39.5802 69.292 39.7949 69.348 40.0935 69.348H41.0035V71H39.7715C38.1195 71 37.2935 70.1973 37.2935 68.592V64.854H36.3695V63.244H37.2935V61.326H39.2675V63.244H41.0035V64.854H39.2675ZM43.4073 62.32C43.0526 62.32 42.7586 62.2127 42.5253 61.998C42.3013 61.774 42.1893 61.4987 42.1893 61.172C42.1893 60.8453 42.3013 60.5747 42.5253 60.36C42.7586 60.136 43.0526 60.024 43.4073 60.024C43.7526 60.024 44.0373 60.136 44.2613 60.36C44.4853 60.5747 44.5973 60.8453 44.5973 61.172C44.5973 61.4987 44.4853 61.774 44.2613 61.998C44.0373 62.2127 43.7526 62.32 43.4073 62.32ZM44.3733 72.274C44.3733 73.1327 44.1586 73.7487 43.7293 74.122C43.3093 74.5047 42.7026 74.696 41.9093 74.696H41.0413V73.03H41.6013C41.8999 73.03 42.1099 72.9693 42.2313 72.848C42.3526 72.736 42.4133 72.5493 42.4133 72.288V63.244H44.3733V72.274ZM49.2778 71.126C48.6431 71.126 48.0738 71.014 47.5698 70.79C47.0658 70.5567 46.6644 70.244 46.3658 69.852C46.0764 69.46 45.9178 69.026 45.8898 68.55H47.8638C47.9011 68.8487 48.0458 69.096 48.2978 69.292C48.5591 69.488 48.8811 69.586 49.2638 69.586C49.6371 69.586 49.9264 69.5113 50.1318 69.362C50.3464 69.2127 50.4538 69.0213 50.4538 68.788C50.4538 68.536 50.3231 68.3493 50.0618 68.228C49.8098 68.0973 49.4038 67.9573 48.8438 67.808C48.2651 67.668 47.7891 67.5233 47.4158 67.374C47.0518 67.2247 46.7344 66.996 46.4638 66.688C46.2024 66.38 46.0718 65.9647 46.0718 65.442C46.0718 65.0127 46.1931 64.6207 46.4358 64.266C46.6878 63.9113 47.0424 63.6313 47.4998 63.426C47.9664 63.2207 48.5124 63.118 49.1378 63.118C50.0618 63.118 50.7991 63.3513 51.3498 63.818C51.9004 64.2753 52.2038 64.896 52.2598 65.68H50.3838C50.3558 65.372 50.2251 65.1293 49.9918 64.952C49.7678 64.7653 49.4644 64.672 49.0818 64.672C48.7271 64.672 48.4518 64.7373 48.2558 64.868C48.0691 64.9987 47.9758 65.1807 47.9758 65.414C47.9758 65.6753 48.1064 65.876 48.3678 66.016C48.6291 66.1467 49.0351 66.282 49.5858 66.422C50.1458 66.562 50.6078 66.7067 50.9718 66.856C51.3358 67.0053 51.6484 67.2387 51.9098 67.556C52.1804 67.864 52.3204 68.2747 52.3298 68.788C52.3298 69.236 52.2038 69.6373 51.9518 69.992C51.7091 70.3467 51.3544 70.6267 50.8878 70.832C50.4304 71.028 49.8938 71.126 49.2778 71.126Z" fill="white"/>
</svg>
