<svg width="55" height="54" viewBox="0 0 55 54" fill="none" xmlns="http://www.w3.org/2000/svg">
<g id="icons8-react-js 1">
<path id="Vector" d="M37.2268 6.07501C36.8556 6.05476 36.5377 6.34448 36.5242 6.71573C36.5039 7.08698 36.7949 7.40476 37.1662 7.42501H37.1992C37.5569 7.42501 37.8541 7.14087 37.8676 6.77637C37.8878 6.40512 37.5981 6.08851 37.2268 6.07501ZM18.6446 6.14224C18.2733 6.10174 17.9349 6.36557 17.8944 6.73682C17.8472 7.10807 18.1177 7.4384 18.489 7.48565H18.5628C18.9003 7.48565 19.1907 7.23664 19.2312 6.89239C19.2785 6.52114 19.0091 6.18274 18.6446 6.14224ZM34.5835 6.57598C34.4954 6.57303 34.405 6.58837 34.3172 6.62212C33.973 6.75712 33.7973 7.14783 33.9323 7.49883C34.0403 7.76208 34.2977 7.93126 34.5677 7.93126C34.6487 7.93126 34.7293 7.91755 34.8103 7.8838C35.1545 7.74879 35.3302 7.35793 35.1952 7.01368C35.094 6.75043 34.848 6.58484 34.5835 6.57598ZM15.8589 6.65377C15.772 6.6679 15.6864 6.69938 15.6071 6.75001C15.2898 6.94576 15.1949 7.36484 15.3974 7.68209C15.5189 7.88459 15.7416 7.99849 15.9643 7.99849C16.0858 7.99849 16.2136 7.96464 16.3216 7.89039C16.6389 7.69464 16.7336 7.27687 16.5378 6.95962C16.391 6.72675 16.1196 6.61137 15.8589 6.65377ZM21.1587 6.93458C20.8967 6.9235 20.6421 7.06884 20.5206 7.3169C20.3586 7.6544 20.5074 8.05929 20.8449 8.2213C20.9327 8.2618 21.0339 8.28194 21.1284 8.28194C21.3849 8.28194 21.628 8.13998 21.7427 7.89698C21.898 7.55948 21.7559 7.16118 21.4184 6.99918C21.334 6.95868 21.246 6.93827 21.1587 6.93458ZM39.6197 7.11651C39.4475 7.11482 39.2754 7.17868 39.1437 7.31031C38.8737 7.57356 38.8739 7.99891 39.1371 8.26216C39.2654 8.39716 39.4402 8.46387 39.6157 8.46387C39.7845 8.46387 39.9608 8.40376 40.089 8.26876C40.3522 8.01226 40.3588 7.58015 40.0956 7.3169C39.964 7.18527 39.7918 7.1182 39.6197 7.11651ZM32.0589 7.8337C31.9719 7.84846 31.8864 7.88063 31.8071 7.93126C31.4966 8.13376 31.4015 8.55268 31.604 8.86993C31.7323 9.06568 31.9548 9.17315 32.1775 9.17315C32.299 9.17315 32.428 9.13929 32.5427 9.06505C32.8532 8.8693 32.9402 8.45153 32.7444 8.13428C32.5925 7.90141 32.3199 7.7894 32.0589 7.8337ZM23.4605 8.30699C23.3148 8.30265 23.1715 8.34563 23.0522 8.42949C22.9329 8.51335 22.844 8.63358 22.7987 8.7722C22.7535 8.91082 22.7543 9.06037 22.8011 9.19848C22.8479 9.33658 22.9382 9.45582 23.0584 9.53834H23.0597L23.0611 9.53965C24.1707 10.3204 25.3347 11.3307 26.5125 12.4994C25.1546 13.9462 23.8035 15.6049 22.4929 17.4353C19.9041 17.6638 17.4934 18.0734 15.3144 18.6218C14.902 17.0007 14.6243 15.4776 14.526 14.1262C14.516 13.9557 14.4417 13.7954 14.3182 13.6775C14.1947 13.5595 14.031 13.4928 13.8602 13.4908C13.7659 13.4895 13.6724 13.508 13.5857 13.5451C13.499 13.5822 13.4211 13.637 13.3568 13.7061C13.2926 13.7752 13.2436 13.8569 13.2129 13.9461C13.1822 14.0352 13.1705 14.1298 13.1786 14.2238C13.2843 15.6751 13.5748 17.2788 14.0039 18.9699C12.6724 19.359 11.4428 19.8024 10.3468 20.2988C10.2867 20.3248 10.2308 20.3595 10.1807 20.4016C10.1397 20.4123 10.0977 20.4129 10.0581 20.4319C9.72059 20.5872 9.57852 20.9922 9.73377 21.3297C9.84852 21.5727 10.0916 21.7147 10.3481 21.7147C10.4426 21.7147 10.5438 21.6946 10.6316 21.6541C10.6687 21.6362 10.6941 21.606 10.7265 21.5829C10.7876 21.573 10.847 21.5548 10.9032 21.5288C11.9236 21.0666 13.0829 20.6491 14.3493 20.279C14.9745 22.4126 15.8323 24.679 16.9122 27.004C15.9615 29.0521 15.1733 31.058 14.5735 32.9643C13.2219 32.5792 11.9828 32.1408 10.9045 31.6525H10.9032C10.9027 31.6521 10.9023 31.6516 10.9018 31.6512C10.9005 31.6506 10.8992 31.6505 10.8979 31.6499C10.8178 31.6132 10.7314 31.5926 10.6434 31.5892C10.5096 31.5844 10.3774 31.6195 10.2636 31.69C10.1498 31.7605 10.0595 31.8633 10.0042 31.9852C9.94897 32.1072 9.93123 32.2429 9.95326 32.3749C9.97529 32.507 10.0361 32.6295 10.128 32.727V32.7283C10.1869 32.7906 10.2571 32.8412 10.3349 32.8773C10.34 32.8797 10.343 32.8842 10.3481 32.8865C10.3596 32.8918 10.3721 32.8926 10.3837 32.897C11.5214 33.4099 12.8048 33.8653 14.1938 34.2628C14.0004 34.9589 13.824 35.6451 13.6823 36.3076C13.6613 36.3951 13.6581 36.4859 13.6728 36.5747C13.6875 36.6634 13.7197 36.7484 13.7677 36.8245C13.8156 36.9006 13.8783 36.9664 13.9521 37.0179C14.0258 37.0694 14.1091 37.1057 14.1971 37.1246C14.285 37.1435 14.3759 37.1446 14.4643 37.1279C14.5527 37.1112 14.6368 37.077 14.7118 37.0273C14.7868 36.9776 14.8511 36.9134 14.9009 36.8385C14.9507 36.7635 14.9851 36.6794 15.0019 36.5911C15.1386 35.9523 15.3107 35.287 15.499 34.6109C17.4481 35.0911 19.5892 35.4501 21.8653 35.6788C23.3694 37.8679 24.9408 39.8198 26.5178 41.4993C25.8388 42.1739 25.1641 42.8059 24.502 43.3556C24.4327 43.4118 24.3752 43.4813 24.333 43.5599C24.2907 43.6385 24.2644 43.7247 24.2556 43.8136C24.2469 43.9024 24.2558 43.9921 24.282 44.0775C24.3081 44.1628 24.351 44.2422 24.408 44.3109C24.465 44.3796 24.5351 44.4363 24.6141 44.4777C24.6932 44.5191 24.7797 44.5445 24.8687 44.5522C24.9576 44.56 25.0472 44.5501 25.1323 44.523C25.2173 44.4959 25.2962 44.4522 25.3642 44.3944C26.0556 43.8205 26.7555 43.1673 27.4565 42.4723C28.4503 43.4593 29.4402 44.3368 30.4109 45.0773C30.4157 45.0812 30.4179 45.0868 30.4228 45.0905V45.0866C30.493 45.1428 30.5738 45.1843 30.6603 45.2089C30.7469 45.2334 30.8375 45.2404 30.9267 45.2294C31.016 45.2184 31.1022 45.1897 31.1802 45.145C31.2583 45.1002 31.3266 45.0403 31.3811 44.9688C31.4357 44.8973 31.4754 44.8156 31.4979 44.7285C31.5205 44.6415 31.5254 44.5507 31.5124 44.4617C31.4994 44.3727 31.4687 44.2872 31.4222 44.2102C31.3757 44.1333 31.3142 44.0663 31.2415 44.0134C30.3179 43.3097 29.3641 42.4628 28.4004 41.5033C29.9779 39.8254 31.5512 37.8752 33.0569 35.6867C35.3432 35.4601 37.4886 35.096 39.447 34.6162C39.7687 35.7684 40.0193 36.8725 40.1905 37.9094C40.2195 38.0862 40.3176 38.2442 40.4631 38.3486C40.5351 38.4003 40.6166 38.4374 40.703 38.4576C40.7894 38.4778 40.8788 38.4808 40.9664 38.4664C41.0539 38.4521 41.1377 38.4206 41.2131 38.3738C41.2884 38.3271 41.3538 38.2659 41.4056 38.1939C41.4573 38.1218 41.4943 38.0403 41.5145 37.9539C41.5347 37.8676 41.5377 37.7781 41.5234 37.6906C41.3445 36.6072 41.0871 35.4634 40.7574 34.2773C41.9032 33.9514 42.9799 33.588 43.9584 33.1831C44.0415 33.15 44.1172 33.1008 44.1811 33.0382C44.245 32.9756 44.2958 32.9009 44.3306 32.8185C44.3654 32.7361 44.3835 32.6476 44.3838 32.5582C44.3841 32.4687 44.3666 32.3801 44.3324 32.2975C44.2981 32.2148 44.2478 32.1398 44.1843 32.0768C44.1209 32.0138 44.0455 31.964 43.9626 31.9304C43.8797 31.8967 43.791 31.8799 43.7015 31.8809C43.6121 31.8818 43.5237 31.9005 43.4416 31.9359C42.5106 32.3213 41.4748 32.67 40.3645 32.984C39.7616 31.0664 38.9774 29.0543 38.0192 26.9934C39.1014 24.6655 39.9562 22.4022 40.5834 20.2658C41.3549 20.49 42.1007 20.7256 42.785 20.9857C42.8677 21.0177 42.9559 21.0331 43.0445 21.0311C43.1331 21.029 43.2205 21.0095 43.3016 20.9737C43.3827 20.9379 43.456 20.8865 43.5172 20.8224C43.5784 20.7583 43.6264 20.6827 43.6585 20.6C43.6905 20.5174 43.7059 20.4292 43.7039 20.3406C43.7018 20.2519 43.6823 20.1646 43.6465 20.0835C43.6107 20.0024 43.5593 19.9291 43.4952 19.8679C43.4311 19.8066 43.3555 19.7586 43.2728 19.7266C43.271 19.7259 43.2695 19.7247 43.2676 19.724C43.2667 19.7237 43.2658 19.7243 43.2649 19.724C42.5395 19.4483 41.7551 19.1999 40.9459 18.9646C41.2432 17.7998 41.4753 16.6768 41.6209 15.6199V15.6186V15.6173C41.6354 15.5224 41.6294 15.4255 41.6035 15.3331C41.5775 15.2407 41.5321 15.1549 41.4704 15.0814C41.4086 15.0079 41.3319 14.9484 41.2453 14.9069C41.1587 14.8654 41.0643 14.8429 40.9683 14.8408C40.8023 14.8374 40.6408 14.8954 40.5148 15.0036C40.3888 15.1119 40.3072 15.2628 40.2854 15.4274C40.2853 15.4284 40.2842 15.4291 40.2841 15.4301V15.4314C40.2841 15.4318 40.2841 15.4323 40.2841 15.4327C40.1473 16.4265 39.9274 17.4945 39.6434 18.6073C37.4595 18.0606 35.0317 17.6616 32.4386 17.4353C31.1239 15.6016 29.7689 13.9335 28.407 12.4862C29.3829 11.5149 30.348 10.6581 31.2824 9.94966C31.3963 9.86553 31.4809 9.74768 31.5242 9.61279C31.5675 9.4779 31.5673 9.33282 31.5235 9.19808C31.4798 9.06334 31.3947 8.94578 31.2805 8.86204C31.1662 8.77831 31.0285 8.73264 30.8869 8.7315C30.7351 8.73048 30.5874 8.78064 30.4676 8.87388C29.4783 9.62401 28.4676 10.5192 27.4538 11.5264C26.2337 10.3189 25.0189 9.26512 23.8389 8.43487C23.7286 8.35505 23.5967 8.31048 23.4605 8.30699ZM14.3243 8.746C14.0626 8.75581 13.8178 8.91649 13.7165 9.17974C13.5815 9.52399 13.7571 9.91618 14.1081 10.0512C14.1891 10.0849 14.2698 10.0986 14.3441 10.0986C14.6208 10.0986 14.877 9.92962 14.9782 9.65962C15.1132 9.31537 14.9377 8.92319 14.5867 8.78819C14.5006 8.75613 14.4115 8.74273 14.3243 8.746ZM40.9486 9.48956C40.8626 9.47637 40.7717 9.48043 40.6823 9.50406C40.3178 9.59856 40.1028 9.96237 40.1905 10.3201C40.2715 10.6306 40.5474 10.8343 40.8444 10.8343C40.8984 10.8343 40.9592 10.8267 41.0132 10.8132C41.3709 10.7187 41.5941 10.355 41.4996 9.99053C41.4288 9.72222 41.2064 9.52911 40.9486 9.48956ZM13.8721 11.3867C13.5009 11.3664 13.1765 11.6441 13.1562 12.0221C13.1292 12.3934 13.4124 12.7098 13.7904 12.7301C13.8039 12.7368 13.8177 12.7367 13.8312 12.7367C14.1822 12.7367 14.4792 12.4603 14.5062 12.1025C14.5265 11.7313 14.2434 11.4069 13.8721 11.3867ZM41.1424 12.1566C40.7711 12.1566 40.474 12.4602 40.474 12.8382C40.474 13.2094 40.7777 13.5066 41.149 13.5066C41.5202 13.5066 41.824 13.2028 41.824 12.8316C41.824 12.4603 41.5204 12.1566 41.1424 12.1566ZM27.4618 13.4631C28.5351 14.6083 29.6109 15.904 30.6693 17.3127C29.6309 17.2556 28.5782 17.2165 27.5 17.2165C26.3935 17.2165 25.3145 17.2581 24.2502 17.318C25.3097 15.9037 26.3866 14.6132 27.4618 13.4631ZM27.5 18.5665C28.9403 18.5665 30.3457 18.6238 31.7082 18.7273C32.6467 20.0661 33.5616 21.4966 34.4332 23.0067C35.203 24.3404 35.9035 25.6729 36.5321 26.9868C35.8986 28.3125 35.1972 29.6555 34.4201 31.0012C34.4169 31.0069 34.4138 31.0126 34.4108 31.0184C34.4072 31.0245 34.4037 31.0306 34.4003 31.0368C33.7203 32.2131 33.0122 33.3337 32.2896 34.4079C30.7472 34.5424 29.1466 34.6162 27.5 34.6162C25.8307 34.6162 24.2053 34.5423 22.6431 34.4039C21.9183 33.3259 21.206 32.2069 20.5245 31.0263C19.7426 29.6715 19.0471 28.3213 18.4112 26.9868C19.0444 25.6624 19.7426 24.3211 20.5193 22.9764C20.5206 22.9742 20.5219 22.972 20.5232 22.9698C20.5255 22.9663 20.5277 22.9628 20.5298 22.9592C21.3896 21.4708 22.2922 20.0627 23.2166 18.7405C24.6044 18.6326 26.0313 18.5665 27.5 18.5665ZM33.4445 18.8934C35.5361 19.123 37.4978 19.4672 39.2782 19.9099C38.7636 21.6555 38.0862 23.5016 37.2493 25.4074C36.7363 24.3872 36.1965 23.3619 35.6026 22.333C34.9085 21.1305 34.1822 19.9934 33.4445 18.8934ZM21.4738 18.9079C20.7509 19.988 20.0411 21.1058 19.3604 22.2842C19.3573 22.2895 19.3541 22.2949 19.3512 22.3001C19.3505 22.3013 19.3506 22.3027 19.3499 22.304C18.7518 23.3397 18.2035 24.3724 17.6874 25.3995C16.8591 23.5068 16.1729 21.6632 15.6624 19.9296C17.4351 19.4857 19.3897 19.1408 21.4738 18.9079ZM45.5483 20.7866C45.2848 20.7622 45.0195 20.8932 44.8878 21.1412C44.7123 21.472 44.8405 21.8767 45.1713 22.0522C45.2725 22.1062 45.381 22.1326 45.489 22.1326C45.7253 22.1326 45.9608 22.0048 46.0823 21.7753C46.2578 21.4513 46.1294 21.0399 45.8054 20.8644C45.7227 20.8205 45.6362 20.7947 45.5483 20.7866ZM8.12274 21.716C7.9523 21.6865 7.7691 21.7214 7.61385 21.8294C7.3101 22.0454 7.23701 22.4643 7.45301 22.7681C7.58801 22.9571 7.79615 23.0581 8.0054 23.0581C8.1404 23.0581 8.27561 23.018 8.39036 22.9302L8.39696 22.9368C8.70071 22.7208 8.77512 22.2953 8.55911 21.9916C8.45111 21.8397 8.29318 21.7456 8.12274 21.716ZM47.6775 22.2763C47.5054 22.2898 47.3389 22.3692 47.2174 22.511C46.9744 22.7945 47.0143 23.2198 47.2978 23.4628C47.426 23.5708 47.5817 23.625 47.7302 23.625C47.926 23.625 48.1146 23.5444 48.2496 23.3824C48.4859 23.0989 48.4514 22.6734 48.1679 22.4372C48.0262 22.3157 47.8496 22.2628 47.6775 22.2763ZM27.5 22.9526C25.263 22.9526 23.45 24.7657 23.45 27.0026C23.45 29.2396 25.263 31.0526 27.5 31.0526C29.7369 31.0526 31.55 29.2396 31.55 27.0026C31.55 24.7657 29.7369 22.9526 27.5 22.9526ZM5.94745 23.563C5.77616 23.59 5.61643 23.6828 5.50843 23.8346C5.29243 24.1384 5.36025 24.5639 5.664 24.7799C5.77875 24.8609 5.92055 24.9078 6.05555 24.9078C6.2648 24.9078 6.4731 24.8066 6.60135 24.6243C6.8241 24.3206 6.75069 23.9016 6.4537 23.6856C6.30182 23.5743 6.11873 23.536 5.94745 23.563ZM49.394 24.3567C49.3066 24.3603 49.2186 24.3808 49.1343 24.4213C48.7968 24.5765 48.6481 24.975 48.8034 25.3125C48.9181 25.5623 49.1612 25.7041 49.4177 25.7041C49.5122 25.7041 49.6067 25.6839 49.7012 25.6434C50.0387 25.4882 50.1873 25.0831 50.0321 24.7456C49.9106 24.4925 49.656 24.3459 49.394 24.3567ZM5.19862 26.0679C4.82871 26.0881 4.53863 26.3971 4.55658 26.7732C4.57143 27.1365 4.86797 27.4179 5.23158 27.4179H5.25926C5.63051 27.4044 5.92023 27.0878 5.89998 26.7166C5.88648 26.3386 5.56987 26.0544 5.19862 26.0679ZM49.5443 26.9842C49.2829 27.0092 49.0465 27.189 48.9655 27.4522V27.4588C48.8575 27.8098 49.0534 28.1878 49.4111 28.3025C49.4719 28.3228 49.5455 28.3302 49.6062 28.3302C49.8965 28.3302 50.1604 28.1472 50.2549 27.8569C50.3629 27.5059 50.167 27.1279 49.8093 27.0132C49.7215 26.9845 49.6314 26.9759 49.5443 26.9842ZM6.31527 28.524C6.14314 28.5055 5.96469 28.553 5.81956 28.6677C5.52931 28.904 5.4818 29.3293 5.71805 29.6196C5.8463 29.7816 6.04158 29.8688 6.24408 29.8688C6.39258 29.8688 6.54181 29.821 6.66331 29.7198C6.95356 29.4903 6.9996 29.0661 6.7701 28.7758C6.65198 28.6273 6.48739 28.5426 6.31527 28.524ZM17.6822 28.5689C18.2033 29.6077 18.7502 30.6517 19.3552 31.7C19.3552 31.7004 19.3552 31.7008 19.3552 31.7013C19.8542 32.5658 20.3695 33.3976 20.8924 34.2101C19.1107 33.9899 17.4279 33.6883 15.8813 33.311C16.3624 31.7911 16.9652 30.2002 17.6822 28.5689ZM37.2519 28.5689C37.9713 30.205 38.5701 31.7976 39.0528 33.3215C37.4963 33.6986 35.8156 34.0066 34.0232 34.2246C34.548 33.4106 35.0662 32.5795 35.567 31.7131C35.5838 31.6863 35.5951 31.6662 35.6079 31.6406C36.2008 30.6124 36.7397 29.5884 37.2519 28.5689ZM48.1429 29.2043C47.9707 29.2001 47.7967 29.2606 47.6617 29.3889C47.3917 29.6454 47.3855 30.0786 47.6353 30.3486C47.7703 30.4836 47.9461 30.5503 48.1284 30.5503C48.2971 30.5503 48.4655 30.4899 48.5937 30.3684C48.8637 30.1119 48.87 29.68 48.6135 29.41C48.4853 29.2783 48.315 29.2085 48.1429 29.2043ZM8.12669 30.3117C7.9571 30.3446 7.80021 30.4426 7.69559 30.5978C7.48634 30.9083 7.57361 31.3272 7.88411 31.5365C7.99886 31.6107 8.12764 31.6512 8.25589 31.6512C8.47864 31.6512 8.68794 31.5424 8.81619 31.3466C9.02544 31.0361 8.94476 30.6184 8.63426 30.4159C8.47901 30.3112 8.29629 30.2788 8.12669 30.3117ZM45.8661 30.7956C45.7784 30.8063 45.6913 30.834 45.6103 30.8813C45.293 31.0635 45.1787 31.4816 45.3677 31.7988C45.4892 32.0216 45.7183 32.1363 45.9478 32.1363C46.0625 32.1363 46.184 32.1101 46.2853 32.0493C46.6093 31.8603 46.7235 31.4477 46.5345 31.1304C46.3978 30.8874 46.129 30.7633 45.8661 30.7956ZM23.6293 35.8238C24.8907 35.9089 26.1768 35.9662 27.5 35.9662C28.7964 35.9662 30.0581 35.9123 31.2955 35.8304C30.0387 37.5774 28.7485 39.1534 27.4618 40.5277C26.1759 39.1522 24.885 37.5709 23.6293 35.8238ZM13.9802 38.4407C13.609 38.4002 13.2706 38.6707 13.2301 39.0419C13.1963 39.4132 13.46 39.7436 13.8312 39.7841C13.8582 39.7841 13.8781 39.7907 13.9051 39.7907C14.2426 39.7907 14.5397 39.5353 14.5735 39.1843C14.614 38.813 14.3515 38.4812 13.9802 38.4407ZM41.0804 39.44C40.7092 39.4603 40.426 39.7781 40.4463 40.1493C40.4665 40.5071 40.7635 40.7835 41.1213 40.7835H41.1621C41.5334 40.7632 41.8165 40.4456 41.7963 40.0676C41.776 39.6963 41.4517 39.413 41.0804 39.44ZM13.7772 41.1341C13.3992 41.1544 13.1162 41.4722 13.1365 41.8434C13.15 42.2012 13.4537 42.4841 13.8115 42.4841H13.8444C14.2157 42.4639 14.5001 42.1474 14.4799 41.7762C14.4664 41.4049 14.1484 41.1139 13.7772 41.1341ZM41.1424 42.1335C40.7711 42.0862 40.4263 42.349 40.379 42.7135C40.3318 43.0848 40.5879 43.4229 40.9591 43.4769C40.9861 43.4769 41.0204 43.4835 41.0474 43.4835C41.3782 43.4835 41.6754 43.2343 41.7159 42.8968C41.7699 42.5255 41.5069 42.1875 41.1424 42.1335ZM14.3256 43.7814C14.2383 43.7768 14.1484 43.7889 14.0606 43.821C13.7096 43.9425 13.5278 44.3335 13.6493 44.6845C13.7506 44.9612 14.0067 45.1301 14.2834 45.1301C14.3577 45.1301 14.4386 45.1175 14.5128 45.0905C14.8638 44.969 15.0458 44.5765 14.9176 44.2323C14.8264 43.964 14.5876 43.7953 14.3256 43.7814ZM23.4381 44.4419C23.2677 44.4115 23.0858 44.4454 22.9305 44.55C22.6268 44.766 22.5525 45.1849 22.7618 45.4887C22.8968 45.6777 23.1063 45.7787 23.3155 45.7787C23.4505 45.7787 23.5856 45.745 23.7071 45.664C24.0108 45.448 24.0851 45.0293 23.8758 44.7188C23.7678 44.5669 23.6086 44.4723 23.4381 44.4419ZM40.3342 44.699C40.0729 44.6648 39.8049 44.7869 39.6632 45.0299C39.4809 45.3539 39.5897 45.7651 39.9137 45.9541C40.0217 46.0148 40.1364 46.0424 40.2512 46.0424C40.4874 46.0424 40.7096 45.9209 40.8378 45.7049C41.0201 45.3809 40.9127 44.9682 40.5887 44.786C40.5077 44.7387 40.4213 44.7104 40.3342 44.699ZM33.1518 45.3661C32.8908 45.3385 32.6253 45.4685 32.4887 45.7115C32.3132 46.0355 32.427 46.4468 32.751 46.6291C32.859 46.6831 32.9672 46.7095 33.0819 46.7095C33.3182 46.7095 33.5484 46.5881 33.6699 46.3654C33.8522 46.0414 33.737 45.6301 33.4062 45.4478C33.3252 45.4022 33.2388 45.3752 33.1518 45.3661ZM20.9636 45.7853C20.8757 45.7879 20.7869 45.8071 20.7025 45.846C20.365 46.0012 20.2164 46.4063 20.3716 46.7438C20.4864 46.9935 20.7295 47.1353 20.986 47.1353C21.0805 47.1353 21.1749 47.1152 21.2694 47.0747C21.6069 46.9194 21.7556 46.5144 21.6003 46.1769C21.4839 45.9237 21.2271 45.7774 20.9636 45.7853ZM15.7099 45.9501C15.5395 45.9822 15.3808 46.079 15.2762 46.2309C15.0669 46.5347 15.141 46.9603 15.4515 47.1696C15.5662 47.2506 15.7016 47.2909 15.8299 47.2909C16.0459 47.2909 16.2539 47.1887 16.3889 46.9929C16.5981 46.6892 16.5173 46.2716 16.2135 46.0556C16.0616 45.9509 15.8803 45.918 15.7099 45.9501ZM38.2908 46.3931C38.2032 46.3862 38.1126 46.3957 38.0231 46.426C37.6721 46.5408 37.476 46.9186 37.5907 47.2764C37.6852 47.5599 37.9492 47.7431 38.2327 47.7431C38.3003 47.7431 38.3749 47.729 38.4424 47.7088C38.8001 47.594 38.9882 47.2095 38.8735 46.8585C38.7874 46.5901 38.5534 46.4136 38.2908 46.3931ZM35.4655 46.3957C35.2051 46.4381 34.9842 46.631 34.9184 46.8993C34.8239 47.2638 35.0471 47.6275 35.4049 47.722V47.7154C35.4589 47.7356 35.5196 47.7431 35.5736 47.7431C35.8706 47.7431 36.1465 47.534 36.2275 47.2302C36.3153 46.8657 36.099 46.5008 35.7345 46.4063C35.6433 46.3843 35.5523 46.3816 35.4655 46.3957ZM18.3466 46.5407C17.9754 46.5745 17.6985 46.8985 17.7323 47.2698C17.766 47.6208 18.063 47.8841 18.4073 47.8841H18.4679C18.8392 47.8504 19.1162 47.5197 19.0757 47.1485C19.0487 46.7772 18.7179 46.507 18.3466 46.5407Z" fill="#FC9F32"/>
</g>
</svg>
