<svg width="92" height="80" viewBox="0 0 92 80" fill="none" xmlns="http://www.w3.org/2000/svg">
<path d="M69.2916 22.5863C66.6043 21.9728 64.2323 20.8698 62.4475 19.4038C60.4804 17.7703 57.9757 16.4567 55.1249 15.5634C52.2742 14.6702 49.1529 14.2209 46 14.25C41.7586 14.0509 37.5597 14.918 34.2395 16.6785C30.9192 18.439 28.7213 20.9637 28.0833 23.75C29.3399 22.3565 31.2311 21.2631 33.4848 20.6272C35.7385 19.9913 38.2385 19.8456 40.625 20.2113C43.3078 20.8426 45.676 21.952 47.4691 23.4175C49.447 25.0379 51.9565 26.3379 54.8066 27.2187C57.6567 28.0994 60.7724 28.5376 63.9166 28.5C68.158 28.6991 72.3569 27.8321 75.6771 26.0716C78.9973 24.3111 81.1953 21.7863 81.8333 19C80.5995 20.4102 78.7143 21.5201 76.456 22.1659C74.1977 22.8116 71.686 22.959 69.2916 22.5863ZM22.7083 34.4138C25.3956 35.0272 27.7677 36.1302 29.5525 37.5963C31.5195 39.2297 34.0242 40.5433 36.875 41.4366C39.7257 42.3298 42.847 42.7791 46 42.75C50.2413 42.9491 54.4402 42.0821 57.7604 40.3216C61.0807 38.5611 63.2786 36.0363 63.9166 33.25C62.66 34.6436 60.7688 35.7369 58.5151 36.3729C56.2614 37.0088 53.7615 37.1544 51.375 36.7888C48.6921 36.1575 46.324 35.048 44.5308 33.5825C42.5476 31.9661 40.0371 30.6689 37.1882 29.7886C34.3393 28.9082 31.2262 28.4677 28.0833 28.5C23.8419 28.3009 19.643 29.168 16.3228 30.9285C13.0026 32.689 10.8046 35.2137 10.1666 38C11.4004 36.5898 13.2856 35.4799 15.5439 34.8341C17.8022 34.1884 20.3139 34.041 22.7083 34.4138Z" fill="#FC9F32"/>
<path d="M11.616 64.228V65.81H9.012V74H7.052V65.81H4.448V64.228H11.616ZM12.5421 70.094C12.5421 69.31 12.6961 68.6147 13.0041 68.008C13.3214 67.4013 13.7461 66.9347 14.2781 66.608C14.8194 66.2813 15.4214 66.118 16.0841 66.118C16.6627 66.118 17.1667 66.2347 17.5961 66.468C18.0347 66.7013 18.3847 66.9953 18.6461 67.35V66.244H20.6201V74H18.6461V72.866C18.3941 73.23 18.0441 73.5333 17.5961 73.776C17.1574 74.0093 16.6487 74.126 16.0701 74.126C15.4167 74.126 14.8194 73.958 14.2781 73.622C13.7461 73.286 13.3214 72.8147 13.0041 72.208C12.6961 71.592 12.5421 70.8873 12.5421 70.094ZM18.6461 70.122C18.6461 69.646 18.5527 69.24 18.3661 68.904C18.1794 68.5587 17.9274 68.2973 17.6101 68.12C17.2927 67.9333 16.9521 67.84 16.5881 67.84C16.2241 67.84 15.8881 67.9287 15.5801 68.106C15.2721 68.2833 15.0201 68.5447 14.8241 68.89C14.6374 69.226 14.5441 69.6273 14.5441 70.094C14.5441 70.5607 14.6374 70.9713 14.8241 71.326C15.0201 71.6713 15.2721 71.9373 15.5801 72.124C15.8974 72.3107 16.2334 72.404 16.5881 72.404C16.9521 72.404 17.2927 72.3153 17.6101 72.138C17.9274 71.9513 18.1794 71.69 18.3661 71.354C18.5527 71.0087 18.6461 70.598 18.6461 70.122ZM23.5284 65.32C23.183 65.32 22.8937 65.2127 22.6604 64.998C22.4364 64.774 22.3244 64.4987 22.3244 64.172C22.3244 63.8453 22.4364 63.5747 22.6604 63.36C22.8937 63.136 23.183 63.024 23.5284 63.024C23.8737 63.024 24.1584 63.136 24.3824 63.36C24.6157 63.5747 24.7324 63.8453 24.7324 64.172C24.7324 64.4987 24.6157 64.774 24.3824 64.998C24.1584 65.2127 23.8737 65.32 23.5284 65.32ZM24.4944 66.244V74H22.5344V66.244H24.4944ZM28.3908 63.64V74H26.4308V63.64H28.3908ZM41.0793 66.244L38.8113 74H36.6973L35.2833 68.582L33.8693 74H31.7413L29.4593 66.244H31.4473L32.8193 72.152L34.3033 66.244H36.3753L37.8313 72.138L39.2033 66.244H41.0793ZM43.1338 65.32C42.7885 65.32 42.4992 65.2127 42.2658 64.998C42.0418 64.774 41.9298 64.4987 41.9298 64.172C41.9298 63.8453 42.0418 63.5747 42.2658 63.36C42.4992 63.136 42.7885 63.024 43.1338 63.024C43.4792 63.024 43.7638 63.136 43.9878 63.36C44.2212 63.5747 44.3378 63.8453 44.3378 64.172C44.3378 64.4987 44.2212 64.774 43.9878 64.998C43.7638 65.2127 43.4792 65.32 43.1338 65.32ZM44.0998 66.244V74H42.1398V66.244H44.0998ZM50.3343 66.132C51.2583 66.132 52.005 66.426 52.5743 67.014C53.1436 67.5927 53.4283 68.4047 53.4283 69.45V74H51.4683V69.716C51.4683 69.1 51.3143 68.6287 51.0063 68.302C50.6983 67.966 50.2783 67.798 49.7463 67.798C49.205 67.798 48.7756 67.966 48.4583 68.302C48.1503 68.6287 47.9963 69.1 47.9963 69.716V74H46.0363V66.244H47.9963V67.21C48.2576 66.874 48.589 66.6127 48.9903 66.426C49.401 66.23 49.849 66.132 50.3343 66.132ZM54.7882 70.094C54.7882 69.31 54.9422 68.6147 55.2502 68.008C55.5675 67.4013 55.9968 66.9347 56.5382 66.608C57.0795 66.2813 57.6815 66.118 58.3442 66.118C58.8482 66.118 59.3288 66.23 59.7862 66.454C60.2435 66.6687 60.6075 66.958 60.8782 67.322V63.64H62.8662V74H60.8782V72.852C60.6355 73.2347 60.2948 73.5427 59.8562 73.776C59.4175 74.0093 58.9088 74.126 58.3302 74.126C57.6768 74.126 57.0795 73.958 56.5382 73.622C55.9968 73.286 55.5675 72.8147 55.2502 72.208C54.9422 71.592 54.7882 70.8873 54.7882 70.094ZM60.8922 70.122C60.8922 69.646 60.7988 69.24 60.6122 68.904C60.4255 68.5587 60.1735 68.2973 59.8562 68.12C59.5388 67.9333 59.1982 67.84 58.8342 67.84C58.4702 67.84 58.1342 67.9287 57.8262 68.106C57.5182 68.2833 57.2662 68.5447 57.0702 68.89C56.8835 69.226 56.7902 69.6273 56.7902 70.094C56.7902 70.5607 56.8835 70.9713 57.0702 71.326C57.2662 71.6713 57.5182 71.9373 57.8262 72.124C58.1435 72.3107 58.4795 72.404 58.8342 72.404C59.1982 72.404 59.5388 72.3153 59.8562 72.138C60.1735 71.9513 60.4255 71.69 60.6122 71.354C60.7988 71.0087 60.8922 70.598 60.8922 70.122ZM64.2765 70.122C64.2765 69.3193 64.4398 68.6193 64.7665 68.022C65.0931 67.4153 65.5458 66.9487 66.1245 66.622C66.7031 66.286 67.3658 66.118 68.1125 66.118C69.0738 66.118 69.8671 66.3607 70.4925 66.846C71.1271 67.322 71.5518 67.994 71.7665 68.862H69.6525C69.5405 68.526 69.3491 68.2647 69.0785 68.078C68.8171 67.882 68.4905 67.784 68.0985 67.784C67.5385 67.784 67.0951 67.9893 66.7685 68.4C66.4418 68.8013 66.2785 69.3753 66.2785 70.122C66.2785 70.8593 66.4418 71.4333 66.7685 71.844C67.0951 72.2453 67.5385 72.446 68.0985 72.446C68.8918 72.446 69.4098 72.0913 69.6525 71.382H71.7665C71.5518 72.222 71.1271 72.8893 70.4925 73.384C69.8578 73.8787 69.0645 74.126 68.1125 74.126C67.3658 74.126 66.7031 73.9627 66.1245 73.636C65.5458 73.3 65.0931 72.8333 64.7665 72.236C64.4398 71.6293 64.2765 70.9247 64.2765 70.122ZM76.1703 74.126C75.5357 74.126 74.9663 74.014 74.4623 73.79C73.9583 73.5567 73.557 73.244 73.2583 72.852C72.969 72.46 72.8103 72.026 72.7823 71.55H74.7563C74.7937 71.8487 74.9383 72.096 75.1903 72.292C75.4517 72.488 75.7737 72.586 76.1563 72.586C76.5297 72.586 76.819 72.5113 77.0243 72.362C77.239 72.2127 77.3463 72.0213 77.3463 71.788C77.3463 71.536 77.2157 71.3493 76.9543 71.228C76.7023 71.0973 76.2963 70.9573 75.7363 70.808C75.1577 70.668 74.6817 70.5233 74.3083 70.374C73.9443 70.2247 73.627 69.996 73.3563 69.688C73.095 69.38 72.9643 68.9647 72.9643 68.442C72.9643 68.0127 73.0857 67.6207 73.3283 67.266C73.5803 66.9113 73.935 66.6313 74.3923 66.426C74.859 66.2207 75.405 66.118 76.0303 66.118C76.9543 66.118 77.6917 66.3513 78.2423 66.818C78.793 67.2753 79.0963 67.896 79.1523 68.68H77.2763C77.2483 68.372 77.1177 68.1293 76.8843 67.952C76.6603 67.7653 76.357 67.672 75.9743 67.672C75.6197 67.672 75.3443 67.7373 75.1483 67.868C74.9617 67.9987 74.8683 68.1807 74.8683 68.414C74.8683 68.6753 74.999 68.876 75.2603 69.016C75.5217 69.1467 75.9277 69.282 76.4783 69.422C77.0383 69.562 77.5003 69.7067 77.8643 69.856C78.2283 70.0053 78.541 70.2387 78.8023 70.556C79.073 70.864 79.213 71.2747 79.2223 71.788C79.2223 72.236 79.0963 72.6373 78.8443 72.992C78.6017 73.3467 78.247 73.6267 77.7803 73.832C77.323 74.028 76.7863 74.126 76.1703 74.126ZM83.7992 74.126C83.1646 74.126 82.5952 74.014 82.0912 73.79C81.5872 73.5567 81.1859 73.244 80.8872 72.852C80.5979 72.46 80.4392 72.026 80.4112 71.55H82.3852C82.4226 71.8487 82.5672 72.096 82.8192 72.292C83.0806 72.488 83.4026 72.586 83.7852 72.586C84.1586 72.586 84.4479 72.5113 84.6532 72.362C84.8679 72.2127 84.9752 72.0213 84.9752 71.788C84.9752 71.536 84.8446 71.3493 84.5832 71.228C84.3312 71.0973 83.9252 70.9573 83.3652 70.808C82.7866 70.668 82.3106 70.5233 81.9372 70.374C81.5732 70.2247 81.2559 69.996 80.9852 69.688C80.7239 69.38 80.5932 68.9647 80.5932 68.442C80.5932 68.0127 80.7146 67.6207 80.9572 67.266C81.2092 66.9113 81.5639 66.6313 82.0212 66.426C82.4879 66.2207 83.0339 66.118 83.6592 66.118C84.5832 66.118 85.3206 66.3513 85.8712 66.818C86.4219 67.2753 86.7252 67.896 86.7812 68.68H84.9052C84.8772 68.372 84.7466 68.1293 84.5132 67.952C84.2892 67.7653 83.9859 67.672 83.6032 67.672C83.2486 67.672 82.9732 67.7373 82.7772 67.868C82.5906 67.9987 82.4972 68.1807 82.4972 68.414C82.4972 68.6753 82.6279 68.876 82.8892 69.016C83.1506 69.1467 83.5566 69.282 84.1072 69.422C84.6672 69.562 85.1292 69.7067 85.4932 69.856C85.8572 70.0053 86.1699 70.2387 86.4312 70.556C86.7019 70.864 86.8419 71.2747 86.8512 71.788C86.8512 72.236 86.7252 72.6373 86.4732 72.992C86.2306 73.3467 85.8759 73.6267 85.4092 73.832C84.9519 74.028 84.4152 74.126 83.7992 74.126Z" fill="white"/>
</svg>
