<svg width="72" height="29" viewBox="0 0 72 29" fill="none" xmlns="http://www.w3.org/2000/svg">
<path id="Vector" d="M59.2916 8.58626C56.6043 7.97282 54.2323 6.86982 52.4475 5.40376C50.4804 3.77031 47.9757 2.45671 45.1249 1.56344C42.2742 0.670171 39.1529 0.220905 36 0.250009C31.7586 0.0509257 27.5597 0.917966 24.2395 2.67846C20.9192 4.43896 18.7213 6.96374 18.0833 9.75001C19.3399 8.35646 21.2311 7.26307 23.4848 6.62717C25.7385 5.99126 28.2385 5.84564 30.625 6.21126C33.3078 6.84255 35.676 7.95197 37.4691 9.41751C39.447 11.0379 41.9565 12.3379 44.8066 13.2187C47.6567 14.0994 50.7724 14.5376 53.9166 14.5C58.158 14.6991 62.3569 13.8321 65.6771 12.0716C68.9973 10.3111 71.1953 7.78628 71.8333 5.00001C70.5995 6.41022 68.7143 7.52013 66.456 8.16589C64.1977 8.81164 61.686 8.95902 59.2916 8.58626ZM12.7083 20.4138C15.3956 21.0272 17.7677 22.1302 19.5525 23.5963C21.5195 25.2297 24.0242 26.5433 26.875 27.4366C29.7257 28.3298 32.847 28.7791 36 28.75C40.2413 28.9491 44.4402 28.0821 47.7604 26.3216C51.0807 24.5611 53.2786 22.0363 53.9166 19.25C52.66 20.6436 50.7688 21.7369 48.5151 22.3729C46.2614 23.0088 43.7615 23.1544 41.375 22.7888C38.6921 22.1575 36.324 21.048 34.5308 19.5825C32.5476 17.9661 30.0371 16.6689 27.1882 15.7886C24.3393 14.9082 21.2262 14.4677 18.0833 14.5C13.8419 14.3009 9.64305 15.168 6.32281 16.9285C3.00258 18.689 0.80461 21.2137 0.166626 24C1.40039 22.5898 3.28559 21.4799 5.5439 20.8341C7.8022 20.1884 10.3139 20.041 12.7083 20.4138Z" fill="#FC9F32"/>
</svg>
